P2
# Criado por distorcao/main.java
90 90
255
106 106 99 99 97 97 88 93 93 101 101 98 96 90 90 88 91 86 86 86 83 82 85 88 86 86 88 83 84 84 91 92 87 90 90 91 98 101 94 99 108 102 103 114 127 131 139 139 147 143 62 49 38 34 30 131 126 126 126 129 130 122 114 111 88 80 81 80 84 87 89 87 79 79 75 74 75 78 83 77 81 77 75 80 85 79 75 69 70 70 
106 106 99 99 97 97 88 93 93 101 101 98 96 90 90 88 91 86 86 86 83 82 85 88 86 86 88 83 84 91 92 92 87 90 90 91 103 101 116 114 108 115 111 123 127 153 145 120 120 88 62 49 38 34 30 34 34 37 46 46 130 136 130 126 100 96 97 82 92 87 89 87 79 79 75 74 75 78 83 77 81 77 75 80 85 79 75 69 70 70 
106 106 99 99 97 97 88 93 93 101 101 98 96 90 90 88 91 86 86 86 83 82 85 88 86 86 88 83 84 91 92 87 90 90 99 100 103 113 116 119 116 115 111 113 134 153 145 22 16 16 15 15 17 17 16 14 13 14 46 60 60 83 107 126 117 111 97 97 99 84 87 90 79 79 75 74 75 78 83 77 81 77 75 80 84 79 75 70 70 70 
106 106 99 99 97 97 88 93 93 101 101 98 96 90 90 88 91 86 86 86 83 82 85 88 86 86 88 83 84 91 92 87 100 99 100 110 113 113 119 119 116 117 114 113 124 86 43 22 16 15 27 20 19 18 17 14 13 14 14 11 9 83 107 133 138 111 110 94 99 82 82 90 81 81 75 74 75 78 83 77 81 82 75 80 84 79 75 70 70 70 
106 106 99 99 97 97 88 93 93 101 98 98 96 90 90 88 91 86 86 86 83 82 85 88 86 86 88 83 84 91 92 103 100 105 105 110 120 119 119 114 116 117 115 124 124 86 15 20 30 27 20 20 19 18 17 17 15 18 19 18 9 16 44 79 138 113 106 94 90 85 82 89 83 81 84 83 75 78 83 77 81 82 75 80 84 79 75 70 70 70 
106 106 99 99 97 97 88 93 93 101 98 98 96 90 90 88 91 86 86 86 83 82 85 88 86 86 88 83 84 93 103 103 101 105 108 110 120 114 114 116 113 115 115 86 36 16 15 20 29 16 14 15 15 15 14 17 16 17 19 18 17 14 10 79 119 145 125 103 98 96 92 87 77 87 88 89 84 88 92 77 81 82 75 80 84 79 75 70 69 70 
106 106 99 99 97 97 88 93 93 101 98 98 96 90 90 88 91 86 86 86 83 82 85 88 86 86 88 93 88 93 95 95 98 103 108 109 118 114 121 120 113 131 86 86 16 16 13 17 29 16 14 43 37 37 30 17 16 17 18 17 16 17 10 9 29 89 125 103 96 96 102 90 77 80 83 89 87 87 92 87 95 87 75 80 84 79 75 70 69 70 
106 106 99 99 97 97 88 93 93 101 98 98 96 90 90 88 91 86 86 83 83 82 85 88 86 92 97 93 91 91 95 95 98 101 107 109 117 114 121 131 134 131 18 16 16 16 53 72 82 69 51 43 37 30 30 24 19 16 16 15 16 17 17 16 13 89 140 132 96 103 102 90 77 78 83 83 80 82 86 94 101 94 83 83 83 78 74 70 69 70 
106 106 99 99 97 97 88 93 93 101 98 98 96 90 88 88 91 86 86 83 82 82 85 94 85 92 113 106 91 94 99 103 96 101 107 115 117 121 124 142 130 58 18 26 37 53 53 72 188 177 146 113 92 80 57 57 40 31 16 15 18 19 17 15 13 7 55 132 126 118 108 89 83 85 83 87 85 82 79 83 87 94 81 80 79 80 74 68 71 73 
106 106 99 99 97 97 88 93 93 101 98 98 96 90 88 88 91 86 86 83 92 92 95 96 95 108 112 109 94 104 105 103 107 103 107 125 123 124 128 142 60 9 18 26 152 167 185 185 188 177 146 113 185 158 57 40 40 31 25 21 19 20 17 15 16 17 55 137 154 144 108 102 96 87 91 92 97 81 85 87 86 93 83 82 79 77 77 74 75 74 
112 112 105 99 97 88 88 93 93 101 98 98 96 90 99 99 90 84 86 87 92 93 93 96 101 109 112 100 100 104 98 102 102 98 115 119 118 124 149 143 60 32 56 106 152 167 246 250 250 246 234 210 185 158 111 72 49 49 34 28 26 20 20 18 16 17 8 35 133 144 132 117 110 95 98 100 97 90 86 89 86 89 85 79 81 77 79 81 81 76 
107 107 104 105 96 92 92 95 95 97 103 99 99 96 99 87 87 79 80 85 92 94 98 98 102 101 100 108 101 101 98 100 102 111 120 119 135 142 149 72 13 32 56 217 231 238 246 250 250 250 245 234 218 182 132 83 56 43 34 28 26 23 20 19 16 17 18 9 133 159 140 122 107 104 104 100 108 109 99 89 98 103 91 92 85 78 88 92 87 82 
108 108 108 108 96 96 96 86 87 87 96 97 97 94 94 83 83 80 81 84 92 87 90 102 101 98 99 108 106 100 98 97 98 111 126 127 135 148 148 72 31 82 157 217 239 248 254 254 250 245 245 234 186 139 132 83 56 43 37 37 31 27 22 19 14 17 19 9 39 138 146 122 112 108 118 104 101 99 112 110 126 121 90 100 85 84 96 101 95 87 
117 117 112 112 110 96 96 88 93 93 97 95 95 91 88 96 89 89 90 85 86 87 93 97 98 104 115 115 103 105 99 105 110 124 141 141 147 150 87 18 31 131 213 237 239 223 226 228 230 228 217 217 186 139 102 76 63 55 43 32 32 27 22 17 15 17 19 18 9 55 146 124 121 114 118 119 113 112 112 126 127 123 93 100 100 100 96 96 92 88 
104 104 104 104 109 110 109 98 104 104 100 89 91 91 96 103 101 101 93 86 87 103 111 97 97 116 117 103 105 113 105 110 132 141 141 151 151 150 21 18 59 133 187 219 222 223 226 197 214 220 205 164 164 123 107 93 80 70 61 32 29 29 27 20 16 17 19 18 16 55 149 128 117 114 129 130 132 112 117 125 120 97 106 104 110 103 93 88 99 99 
118 118 104 104 103 111 111 116 118 118 102 94 92 92 103 106 111 101 101 94 94 103 119 115 119 116 129 120 120 123 120 118 140 146 148 150 101 21 29 29 79 133 175 200 202 198 193 197 214 236 229 203 203 171 154 142 80 70 61 51 37 27 27 20 16 18 19 18 16 98 159 142 117 114 117 114 136 134 131 128 124 107 106 114 102 113 102 94 100 104 
118 118 117 117 109 104 104 112 111 104 104 98 90 90 100 116 112 96 96 96 110 119 120 123 130 128 132 128 119 130 134 133 126 130 150 150 32 13 29 87 137 137 175 206 208 203 198 200 221 236 229 203 171 171 154 142 125 103 80 66 44 28 23 20 20 18 19 17 9 40 134 142 109 93 101 118 136 133 139 137 128 107 110 113 103 106 108 105 102 109 
125 125 138 138 139 134 134 134 129 115 115 110 103 112 121 116 101 91 101 101 119 122 128 129 133 134 136 129 122 149 136 128 126 139 141 106 21 18 37 87 149 186 186 206 208 206 212 220 204 163 130 126 136 136 134 131 117 96 73 60 44 28 24 19 18 18 19 15 14 16 134 105 87 87 100 118 134 134 140 142 136 113 114 119 118 98 104 108 102 109 
122 122 134 150 150 152 140 140 123 118 118 129 136 132 132 121 113 114 117 125 125 125 141 135 142 135 148 140 142 149 144 135 137 185 128 39 18 18 56 106 153 166 166 166 184 206 191 169 86 29 23 38 60 59 59 52 47 41 73 60 44 32 27 19 18 18 17 16 15 16 59 63 73 84 100 101 121 131 144 127 122 116 120 123 130 114 120 120 120 123 
139 139 139 136 136 133 133 133 121 116 116 121 129 145 148 148 138 137 133 135 135 139 142 134 142 148 156 151 147 153 139 146 159 193 68 21 18 17 54 112 153 69 58 58 85 165 191 169 27 17 41 64 45 29 29 20 47 41 34 35 37 32 29 19 18 18 18 16 16 14 35 57 55 84 80 67 82 121 110 127 125 119 118 120 125 129 140 141 136 138 
153 153 144 151 151 145 133 133 131 144 142 142 145 160 152 152 146 153 145 142 142 142 165 148 151 160 162 166 156 145 177 192 202 153 34 20 18 17 47 94 92 47 32 25 25 83 159 101 27 17 41 64 45 29 20 20 16 15 27 41 38 32 29 19 17 18 18 19 16 17 28 47 38 67 59 61 73 92 78 130 113 128 126 129 127 133 143 143 141 139 
141 141 154 180 180 168 140 140 158 157 184 184 197 186 167 169 169 176 160 159 159 192 192 175 183 167 170 190 172 159 219 226 242 95 21 22 20 18 25 27 40 47 34 41 41 76 152 88 24 39 86 109 52 31 31 31 49 88 105 77 48 32 28 21 16 17 18 19 18 17 24 37 38 62 66 65 64 57 78 93 89 149 142 144 146 144 142 137 134 148 
117 117 110 168 168 157 142 147 147 143 181 181 173 179 181 188 188 196 177 179 197 209 214 214 205 168 212 206 208 206 198 202 197 76 23 23 21 17 54 59 71 75 34 122 122 139 165 83 39 75 124 125 129 125 133 133 143 143 128 80 48 32 26 19 18 18 18 19 19 17 18 37 34 48 54 61 58 57 70 76 76 118 140 147 144 142 142 140 143 132 
112 112 81 65 114 114 110 104 104 105 151 161 161 162 201 194 159 159 135 130 185 170 157 179 179 207 189 192 196 202 149 151 142 76 23 20 20 17 98 165 143 115 95 204 204 196 182 82 58 114 193 217 231 235 219 171 171 117 128 80 44 27 23 19 18 18 16 18 19 17 17 34 36 37 36 48 50 58 73 59 68 66 115 144 139 138 143 143 140 117 
77 77 73 68 69 76 99 96 96 92 94 128 128 139 151 140 117 117 105 98 78 66 60 82 126 126 107 180 191 180 101 118 136 94 21 21 18 17 91 173 206 210 211 204 175 192 193 92 66 105 170 192 205 207 182 136 136 117 81 62 39 27 24 19 18 19 17 16 17 19 17 36 35 36 36 36 38 52 46 36 57 64 97 144 127 130 130 132 111 106 
66 66 73 69 72 72 78 90 91 91 80 90 104 104 91 90 94 78 78 72 53 54 68 67 47 142 142 169 152 98 56 63 111 63 26 20 18 19 54 143 195 208 206 175 194 194 196 95 66 77 164 172 173 167 138 100 136 86 62 51 36 29 25 20 19 19 17 14 16 19 16 31 31 34 37 40 38 47 43 37 43 51 144 143 125 117 117 101 91 97 
68 74 74 76 78 78 86 88 76 76 82 90 83 83 71 70 63 55 54 51 54 52 64 70 66 101 108 108 72 63 56 47 56 22 23 21 21 17 35 111 167 191 160 110 120 120 106 47 35 39 146 181 146 128 91 100 65 65 51 39 31 30 26 20 19 19 18 16 17 19 30 50 43 39 40 46 46 40 38 39 43 49 115 146 120 111 102 99 94 94 
75 76 76 77 85 85 85 79 84 87 87 77 73 67 67 69 68 52 52 52 54 47 57 56 65 47 52 53 53 57 49 46 34 20 20 20 20 16 23 66 116 142 149 114 120 150 35 26 37 55 97 107 88 81 70 67 53 53 41 34 32 32 29 20 17 18 17 18 18 15 36 71 66 66 84 85 42 41 40 32 31 35 74 116 115 102 92 98 107 99 
75 56 56 69 79 77 77 77 78 87 87 75 72 73 72 72 69 42 52 52 52 39 40 46 45 43 32 39 57 47 44 38 22 21 19 20 19 14 19 51 77 92 157 222 150 129 87 55 53 56 46 54 77 85 70 60 51 41 41 35 33 32 29 21 17 16 17 15 19 16 20 31 33 38 50 58 74 74 78 77 77 81 81 83 100 104 94 90 89 93 
58 39 65 65 75 72 72 72 74 70 66 66 62 67 58 58 52 52 56 48 42 42 41 44 46 43 42 42 47 45 45 39 25 21 20 19 19 17 15 37 77 86 74 95 129 114 82 64 51 50 66 86 93 89 79 63 54 46 46 38 33 29 27 21 17 16 17 19 19 16 17 27 30 34 35 31 32 50 53 60 67 83 89 102 115 112 80 66 62 56 
36 31 49 49 73 67 59 59 57 64 53 53 54 66 67 62 62 53 53 45 43 46 46 46 47 45 45 45 51 46 40 40 26 20 20 21 23 19 16 18 56 102 120 147 114 138 90 69 62 69 80 83 82 72 74 59 50 45 37 30 30 26 24 19 18 17 17 16 16 17 15 27 37 39 41 38 35 34 33 31 37 44 58 63 62 59 55 55 50 47 
33 34 38 64 64 71 63 57 57 58 54 55 55 58 60 60 58 58 61 55 49 54 52 51 49 54 49 48 50 44 42 30 30 21 20 22 22 19 18 15 18 46 99 155 138 183 220 198 137 98 85 77 68 52 56 47 41 42 33 29 26 22 19 18 20 19 18 16 16 18 18 25 37 38 37 39 40 43 35 33 41 46 49 43 42 52 56 58 51 58 
34 35 32 42 42 72 68 62 62 58 60 58 54 54 53 53 57 57 64 58 50 52 51 55 55 58 49 47 43 41 44 34 23 23 21 20 19 20 19 18 13 14 32 87 75 75 132 136 100 76 63 52 45 41 39 39 38 35 31 27 24 23 19 19 21 20 18 16 17 17 18 20 36 43 42 46 47 44 44 49 50 44 56 57 58 62 66 65 59 54 
34 34 34 39 68 68 69 63 60 60 57 53 53 53 54 54 54 58 58 55 51 51 51 48 46 46 48 45 47 47 50 35 22 24 24 20 19 20 21 18 18 16 13 22 14 24 24 32 35 38 35 32 33 34 34 35 32 30 27 27 28 24 19 18 21 18 17 18 19 17 17 18 38 41 47 55 53 52 46 47 49 46 48 48 40 37 31 31 35 54 
31 39 39 49 69 67 67 62 60 56 56 56 59 58 58 57 55 49 46 46 48 50 45 43 40 43 43 59 58 58 63 43 24 21 21 21 21 18 21 21 18 17 17 14 13 13 24 24 31 28 25 27 27 28 29 31 26 26 30 34 31 26 19 18 18 19 17 18 20 19 17 16 55 52 51 57 60 57 47 47 46 50 52 50 47 46 47 50 52 61 
33 34 34 48 56 63 63 62 60 56 56 56 56 53 55 55 49 45 47 47 47 49 55 57 55 55 59 57 61 59 62 73 31 18 21 20 19 19 20 19 20 18 16 15 14 15 31 31 59 46 35 35 32 32 33 35 36 27 33 36 35 30 21 18 18 19 18 20 21 21 18 30 42 42 54 55 61 56 51 54 53 49 54 56 61 55 53 53 45 61 
33 27 27 34 34 48 58 58 60 57 53 53 53 50 51 47 47 48 45 47 48 48 53 51 54 53 59 66 66 71 73 80 48 17 20 19 21 21 19 18 19 17 16 16 16 15 20 60 60 71 58 52 46 38 36 37 42 50 40 41 34 27 19 19 19 18 18 20 21 19 17 25 36 39 39 38 40 41 40 44 43 37 43 46 47 43 36 35 47 60 
30 31 32 31 29 27 41 61 61 56 52 51 51 50 52 46 46 44 48 47 46 52 52 53 54 54 72 73 75 75 76 76 71 33 17 20 21 20 20 21 19 16 19 19 17 16 15 44 74 74 71 68 62 51 45 48 54 63 68 66 41 25 19 20 21 20 18 17 20 18 17 27 36 41 39 40 43 40 39 37 37 40 34 30 27 28 25 33 42 43 
26 31 31 28 31 25 29 51 51 59 56 58 54 54 51 44 42 42 47 57 59 64 64 64 66 78 80 82 77 74 75 74 75 52 18 21 21 21 20 20 20 19 18 19 20 27 36 44 62 76 76 76 73 66 63 65 70 74 77 78 69 38 22 20 22 20 20 21 22 18 17 23 38 49 53 72 72 64 65 65 63 78 64 58 58 63 68 74 63 51 
28 28 27 26 30 30 28 35 54 54 60 60 59 59 56 53 53 55 63 62 65 68 73 76 76 75 81 83 76 75 65 65 58 51 20 22 21 21 19 19 19 19 23 36 45 61 92 90 81 94 85 78 82 82 80 88 96 99 100 103 97 75 38 19 21 21 22 22 23 18 18 17 16 29 27 30 33 36 51 68 70 65 65 75 73 69 63 52 42 49 
51 47 47 37 34 27 27 25 43 59 59 57 58 59 59 61 61 70 72 72 74 77 77 74 73 73 74 81 77 79 41 40 33 33 23 24 22 21 19 18 39 61 61 72 85 103 126 138 126 128 116 103 109 123 133 133 128 128 122 120 78 40 24 21 19 22 25 22 22 18 18 18 15 24 29 28 27 32 29 35 16 17 34 63 82 66 55 40 42 53 
64 64 64 63 62 40 49 49 57 56 60 60 66 71 69 69 65 58 47 53 53 71 81 74 55 48 48 50 56 32 30 37 30 23 21 23 23 22 19 21 84 108 124 142 142 149 154 158 159 151 139 138 142 151 161 158 147 132 113 93 71 38 25 23 20 26 27 22 22 18 19 17 17 21 33 37 44 50 74 109 105 95 78 70 71 40 46 40 45 44 
67 68 70 70 71 70 65 65 65 69 69 69 56 52 59 38 38 38 38 36 38 38 50 33 38 40 35 39 39 37 31 28 23 21 23 21 21 19 20 80 136 144 148 161 168 170 170 172 173 175 167 159 161 168 170 161 153 143 118 92 78 49 28 26 20 23 21 18 18 19 18 15 19 18 16 21 26 25 86 139 104 83 54 44 42 45 47 46 44 45 
69 70 70 66 66 69 70 76 76 76 60 51 51 46 38 38 38 38 47 50 35 32 32 41 37 35 39 43 36 36 30 25 21 23 21 21 25 29 29 113 157 162 168 176 177 176 172 172 174 174 170 163 166 168 161 152 143 132 119 92 63 30 23 25 20 22 20 17 18 17 17 18 19 19 19 17 20 30 38 38 85 96 89 74 72 66 62 59 66 67 
68 71 60 54 53 53 45 48 56 56 58 55 42 42 37 46 46 45 45 44 39 37 48 48 41 34 37 43 38 31 25 25 22 22 23 24 30 52 140 165 165 173 180 182 180 175 170 171 175 173 169 168 168 166 161 155 144 132 119 91 63 30 27 23 18 19 16 17 19 19 21 23 24 20 19 14 13 16 21 26 45 55 88 107 109 98 106 101 104 101 
52 52 46 46 47 47 43 50 47 48 48 47 49 48 48 56 56 54 42 42 37 37 47 44 36 36 38 44 36 26 24 22 21 23 31 31 32 70 165 166 173 179 179 180 175 170 171 177 179 175 170 167 164 165 162 151 136 115 89 53 29 23 21 19 21 29 35 42 50 57 48 43 33 29 21 17 14 14 14 15 15 25 35 47 76 86 80 71 101 111 
46 40 40 43 53 54 54 46 46 50 50 43 56 55 60 60 52 49 43 37 37 38 43 44 39 44 44 34 24 23 23 21 27 42 42 48 57 165 170 173 173 175 177 175 160 160 174 180 182 181 177 173 171 171 168 159 136 104 74 48 30 26 24 25 34 44 49 52 45 36 25 18 14 13 13 12 12 13 16 17 13 14 18 24 24 20 21 27 52 85 
52 53 53 42 47 59 52 52 59 54 47 47 61 56 54 48 48 46 44 38 42 42 46 48 46 47 23 23 23 24 21 19 46 84 95 126 165 179 178 175 167 164 161 149 168 183 184 186 186 186 184 180 178 175 170 167 123 64 37 28 22 22 20 35 36 30 23 10 10 13 13 13 13 12 11 12 12 12 14 13 13 13 12 18 21 18 22 21 22 30 
51 52 44 44 40 58 76 76 75 78 68 65 65 57 56 54 43 43 45 40 43 49 49 47 36 28 24 23 23 23 20 26 61 127 150 167 181 182 169 153 153 134 149 178 182 184 187 188 189 186 184 173 167 147 94 36 20 21 19 15 15 14 14 13 12 11 8 9 11 13 13 12 11 13 12 12 11 12 12 11 10 13 12 18 22 21 20 27 24 25 
48 44 39 38 38 41 46 50 50 76 85 85 70 70 65 62 50 45 50 46 50 47 31 31 22 20 22 20 18 21 26 33 33 100 164 179 149 168 166 121 103 134 175 175 185 186 188 194 197 128 129 112 82 40 19 19 19 20 18 13 14 14 12 11 10 11 10 12 14 14 14 14 12 12 12 12 11 12 12 12 11 12 13 18 21 27 25 27 25 25 
46 40 41 42 42 37 36 32 34 34 42 65 74 74 72 66 60 71 69 69 52 28 19 20 21 21 21 16 17 25 27 23 31 66 66 25 38 56 64 49 78 34 49 65 73 85 104 118 20 20 20 17 13 17 19 18 20 19 14 10 10 11 11 10 12 13 18 17 14 16 15 12 12 11 11 11 12 13 12 12 11 12 16 18 16 18 18 19 20 27 
45 45 44 42 38 38 32 34 34 34 28 29 50 48 48 48 43 73 66 28 28 16 20 21 21 18 16 16 23 30 39 34 28 25 25 29 20 18 18 21 30 28 25 24 21 20 20 28 21 19 18 20 21 18 16 16 12 9 12 13 13 13 15 15 19 18 16 14 14 20 23 22 21 18 17 16 15 16 16 13 11 8 10 13 13 16 29 30 27 26 
37 37 37 38 35 35 33 35 28 27 27 30 27 28 64 64 58 44 26 15 17 17 19 20 18 15 18 25 30 37 39 38 37 36 42 34 28 34 32 30 35 34 36 36 31 29 27 20 19 19 21 21 19 16 12 13 12 11 13 14 14 15 15 15 15 15 17 18 20 23 22 21 20 19 18 17 17 14 10 10 11 7 8 10 11 12 33 34 38 25 
38 37 39 39 42 46 46 48 43 47 49 49 40 39 36 22 22 15 15 18 17 18 17 16 15 18 24 33 35 34 36 36 32 39 31 31 34 37 40 35 32 31 35 29 29 19 19 19 19 18 17 15 13 11 11 11 9 9 11 11 13 14 12 12 14 19 20 21 22 21 20 18 18 17 14 12 11 7 8 8 6 12 12 10 12 11 19 26 30 26 
37 37 49 47 32 25 25 27 35 27 27 27 25 25 21 14 16 16 17 20 16 16 14 14 17 22 32 31 30 37 32 28 33 23 25 25 31 32 36 33 28 26 27 25 16 19 18 18 18 17 14 11 11 11 12 10 11 10 11 14 12 9 10 13 16 18 19 21 20 20 19 13 9 7 6 8 11 8 5 7 5 12 11 9 10 10 17 30 33 36 
39 39 41 46 44 38 38 41 48 53 51 47 47 37 15 15 17 17 18 14 15 14 15 19 25 25 33 28 30 31 27 28 23 21 20 28 29 33 23 22 23 22 19 16 16 17 20 20 17 15 14 13 13 13 12 12 11 10 11 10 10 10 13 16 16 18 19 20 19 17 13 10 7 7 8 9 8 9 9 6 6 11 10 7 8 8 10 17 38 40 
36 39 39 42 44 43 46 46 49 52 54 59 59 38 16 16 17 14 14 15 17 15 17 19 22 25 25 25 26 25 24 26 19 15 17 23 21 19 19 19 20 18 15 17 20 18 17 16 15 14 13 14 12 13 14 12 12 11 9 10 10 13 19 17 14 14 13 13 11 10 6 7 5 4 4 4 3 4 5 5 3 8 7 5 7 7 11 13 18 19 
28 28 28 29 31 28 28 28 27 27 27 28 21 21 15 17 16 15 14 14 16 17 17 18 21 20 21 25 23 22 22 20 18 18 19 20 19 16 16 18 17 17 18 18 16 16 18 15 12 13 14 13 12 12 9 11 12 11 9 10 12 16 15 13 11 4 5 4 8 8 5 4 4 4 2 4 2 4 6 5 3 7 9 6 7 12 16 20 20 19 
32 31 25 25 25 24 25 25 25 24 25 18 19 19 18 16 16 16 14 15 15 18 17 17 18 18 21 21 20 22 20 18 20 20 19 17 14 17 17 17 19 18 16 15 17 16 13 12 13 13 12 10 9 10 8 9 8 8 10 12 17 14 4 3 3 6 7 7 6 5 7 9 9 8 6 3 4 5 5 4 4 6 3 5 8 10 10 14 20 21 
52 52 48 44 41 44 48 48 48 42 28 16 16 16 14 15 19 18 18 17 18 17 17 16 15 17 20 21 19 20 17 15 19 19 18 18 18 17 16 16 18 16 17 18 16 14 12 13 13 12 11 10 9 9 7 6 7 6 8 13 11 7 4 2 2 4 9 10 7 5 3 4 3 5 7 4 5 3 3 3 5 6 3 4 5 8 11 13 19 22 
59 59 57 56 56 53 58 58 57 48 28 14 14 14 14 15 17 16 14 14 16 18 18 15 15 15 19 16 18 16 14 17 19 18 16 16 14 13 13 12 13 15 14 16 16 12 11 12 13 12 11 12 10 11 8 6 7 6 10 11 7 6 5 2 0 3 8 7 7 6 5 5 3 2 3 3 5 3 1 1 2 2 3 5 8 10 12 13 19 24 
56 56 57 54 56 59 59 59 52 44 20 14 14 17 17 21 19 14 13 15 17 19 19 18 17 17 15 16 16 17 17 17 17 13 14 13 12 12 12 14 15 15 12 12 10 12 13 13 12 11 10 10 11 7 7 7 8 11 5 5 6 4 2 2 3 5 6 6 6 5 5 4 2 3 3 3 4 3 2 2 1 4 8 9 11 10 8 11 17 20 
26 26 26 26 24 20 19 19 15 16 16 17 17 14 14 16 17 16 18 18 16 16 18 18 17 16 16 16 18 16 15 15 12 12 12 12 12 13 15 16 14 12 10 11 12 12 12 12 11 8 11 12 11 8 7 8 12 7 4 5 8 6 4 11 10 9 10 10 9 9 7 5 8 10 5 4 3 3 2 3 6 9 11 9 7 7 9 14 17 17 
27 26 26 27 26 20 20 15 14 19 18 17 16 17 19 19 17 15 16 14 16 18 18 18 17 15 14 15 15 16 17 17 13 12 12 12 13 15 14 13 12 12 11 12 13 11 12 9 9 11 10 9 7 10 12 10 7 5 6 7 7 10 11 12 13 12 10 9 8 8 10 9 10 11 9 6 5 4 3 4 7 7 9 9 9 11 11 11 17 17 
28 27 24 21 18 17 17 18 17 17 19 19 18 19 19 19 19 18 17 15 16 17 17 18 17 16 17 18 16 16 16 16 15 13 14 15 14 11 12 13 13 13 14 13 11 11 11 11 11 9 7 7 6 8 11 8 8 6 6 8 7 9 10 10 12 12 9 8 11 10 9 7 10 9 6 8 8 8 5 8 8 10 10 9 9 12 13 11 14 14 
23 15 14 14 16 16 18 19 18 15 17 15 14 15 16 16 18 16 17 17 18 18 16 16 16 16 17 18 17 17 14 15 16 13 16 13 11 12 14 13 13 15 13 11 10 10 12 13 13 12 10 7 7 8 7 7 7 8 10 8 9 9 11 11 12 12 13 12 11 12 9 7 9 9 8 7 9 9 12 10 10 9 10 12 12 10 10 11 13 13 
16 14 16 18 18 17 17 18 17 16 19 17 15 16 16 15 16 15 15 16 15 17 19 18 16 15 15 16 14 13 13 13 16 17 15 14 14 13 13 11 11 11 11 11 10 11 12 13 13 12 11 9 8 10 10 11 9 10 11 12 13 11 11 13 15 15 14 13 12 11 11 11 11 12 11 9 10 8 10 10 9 11 11 13 12 10 10 10 14 14 
16 15 15 16 18 18 18 21 22 25 25 24 23 21 21 21 20 21 22 18 14 15 17 15 14 15 15 16 18 17 15 18 15 16 16 16 15 11 11 10 11 11 13 13 13 13 13 12 11 11 11 12 12 11 12 11 10 11 13 13 13 12 14 14 13 13 15 15 12 11 12 12 12 11 11 11 10 6 4 5 10 9 9 9 9 9 10 9 12 12 
21 17 16 17 16 19 20 24 26 26 30 22 17 17 20 21 22 24 24 21 17 15 16 17 16 16 16 17 16 14 13 13 14 15 15 12 10 8 8 11 12 14 14 13 13 14 12 11 11 11 10 11 11 12 12 10 11 13 12 13 13 13 13 13 12 13 13 13 11 7 10 12 11 9 11 11 7 7 4 3 5 7 7 6 8 8 11 9 11 11 
19 17 16 16 16 20 22 28 25 25 24 24 25 36 18 26 32 34 32 33 34 23 21 33 77 84 81 66 49 34 21 14 10 9 7 6 9 11 11 12 12 12 12 11 11 13 12 10 11 10 9 10 12 13 14 12 11 12 11 12 11 10 11 14 13 12 11 10 9 9 13 14 11 10 9 10 10 8 8 8 12 12 12 11 9 9 9 8 10 10 
21 19 17 17 18 20 18 23 23 31 33 29 22 20 37 32 25 31 26 30 21 28 46 84 98 100 98 92 80 71 61 53 39 31 23 49 25 12 7 7 9 12 11 9 12 11 10 10 11 11 10 11 12 13 11 11 12 25 20 20 17 16 14 21 15 10 7 8 11 10 13 13 13 13 11 10 7 9 8 11 11 13 13 11 9 11 10 10 11 11 
17 17 15 15 15 15 16 16 22 28 28 20 23 29 29 19 27 24 21 18 23 32 65 84 91 93 92 93 89 79 79 77 70 65 66 61 47 31 17 15 12 8 9 10 10 9 9 9 10 10 10 13 11 13 19 23 25 23 20 22 23 23 21 18 19 15 10 7 7 10 13 13 13 12 12 12 10 11 11 11 11 11 10 9 11 12 10 10 9 9 
17 17 17 19 18 16 17 17 16 16 17 21 21 18 20 20 22 22 18 20 19 27 50 56 56 58 60 63 71 74 73 74 74 67 65 63 62 63 63 55 34 19 11 9 13 8 8 10 12 13 13 29 25 23 25 28 29 29 26 20 19 18 19 16 16 14 14 11 10 11 15 15 14 13 13 13 13 13 12 11 11 11 11 11 12 12 11 11 11 11 
17 17 16 17 18 18 19 17 18 18 17 17 16 16 20 19 16 17 18 18 19 18 27 31 30 35 44 51 60 62 65 66 68 69 68 69 68 69 72 78 69 45 23 24 20 22 24 23 38 33 31 27 31 27 21 22 27 25 32 28 21 18 14 16 18 17 14 10 12 12 15 16 15 17 14 14 14 15 14 13 12 13 13 13 13 13 13 13 12 12 
13 14 16 15 16 16 14 13 13 14 16 15 18 18 18 19 20 19 18 15 18 15 17 19 17 25 37 45 52 55 58 64 63 59 61 64 63 48 52 77 88 82 68 54 33 27 27 30 37 34 28 23 23 26 21 21 22 21 19 24 27 20 16 18 18 16 14 12 13 14 14 16 16 18 16 12 12 12 14 13 13 13 13 13 14 14 14 14 12 12 
16 15 14 14 15 17 16 14 16 17 17 17 19 19 19 18 18 18 17 15 23 36 45 47 66 54 32 31 38 39 54 58 57 52 53 60 61 50 17 26 11 21 34 41 39 30 28 23 19 22 26 27 26 25 28 23 20 23 24 20 20 20 16 16 17 16 13 12 14 15 15 15 14 14 14 13 13 13 13 12 12 14 14 13 14 14 13 13 13 13 
16 15 15 15 13 16 19 16 14 17 18 19 17 15 17 17 17 18 19 37 51 50 39 39 74 63 47 29 25 30 34 38 47 58 58 41 22 55 70 65 40 16 14 20 34 38 30 26 23 19 20 22 23 24 28 29 23 23 25 21 18 18 17 17 16 17 16 13 13 15 15 13 13 13 13 12 12 12 12 11 11 13 13 14 14 13 13 13 12 12 
16 14 14 16 18 19 18 17 15 18 19 18 18 15 16 18 17 16 26 28 29 26 40 60 64 75 68 49 29 21 26 34 34 40 53 67 64 21 38 56 60 43 24 16 22 27 31 26 23 18 17 21 20 20 26 27 22 23 18 19 16 15 17 16 16 14 15 12 13 18 17 14 14 13 13 12 11 11 10 9 11 14 14 14 15 15 15 14 12 12 
15 14 13 14 14 16 16 15 13 16 18 18 19 19 18 17 18 18 26 27 40 48 34 25 47 73 63 57 44 31 23 25 25 22 23 37 61 47 21 22 29 41 47 30 15 17 19 19 18 17 18 21 15 15 17 18 21 19 14 15 16 15 18 16 16 16 14 13 14 15 15 15 15 14 13 12 12 12 10 10 11 11 12 13 14 15 15 13 12 12 
15 14 15 15 15 16 19 19 17 18 18 18 18 15 18 18 16 17 22 28 32 27 23 34 42 51 48 36 29 34 27 21 25 27 25 22 28 46 35 19 18 24 32 37 21 17 16 14 17 19 18 19 16 15 15 14 15 15 14 18 19 18 18 16 14 14 14 13 13 12 13 13 13 12 13 11 12 11 12 12 11 11 10 11 11 11 12 12 11 11 
14 14 14 14 15 15 14 16 17 18 17 18 19 16 16 19 18 17 18 19 23 26 31 38 50 52 37 22 19 18 17 22 19 22 26 25 20 20 25 24 21 17 17 24 29 19 17 17 18 17 17 18 17 17 18 18 15 15 16 18 18 19 18 15 14 17 17 15 12 12 12 12 12 10 9 10 11 11 11 10 9 9 7 8 9 9 11 10 11 11 
14 14 14 15 14 16 14 15 16 17 19 18 18 15 16 19 18 17 17 17 14 19 23 41 44 28 22 18 16 17 16 14 17 17 19 18 18 16 16 17 20 19 16 18 18 18 16 18 17 15 18 19 18 17 18 18 18 19 19 18 18 19 18 17 17 18 19 15 13 12 12 10 10 10 9 8 10 10 11 10 10 9 5 5 5 7 9 9 9 10 
14 14 13 13 15 16 16 20 19 16 17 16 19 17 16 19 16 16 15 15 14 15 20 25 22 20 17 17 18 19 16 15 15 17 16 15 17 16 15 16 18 17 15 17 17 14 13 14 16 16 15 16 16 16 18 16 17 18 17 18 18 18 15 14 18 18 16 15 13 12 11 10 10 9 9 5 5 9 12 10 7 5 2 2 1 2 3 3 3 6 
15 15 15 14 16 20 18 17 16 14 18 17 15 16 13 13 14 14 14 15 15 16 18 19 18 16 17 19 17 18 18 18 17 17 18 17 17 16 16 17 16 18 15 16 16 14 12 13 13 13 13 13 14 13 14 17 15 16 16 17 18 18 16 16 16 15 16 14 15 15 13 13 8 6 5 3 3 3 5 5 7 5 2 0 0 1 1 1 0 6 
17 17 17 18 18 17 16 14 14 11 12 12 10 9 8 8 10 10 10 10 14 13 17 19 16 15 16 14 18 17 16 19 18 16 18 17 17 17 17 16 17 19 15 15 16 14 14 14 14 14 14 13 13 12 13 15 15 13 14 17 18 18 17 17 18 15 14 12 14 14 14 11 8 4 2 2 2 1 1 1 1 0 0 0 0 1 1 1 0 6 
16 16 16 15 12 12 11 11 12 11 9 7 5 4 2 3 4 5 6 7 8 8 13 14 12 11 13 12 11 15 18 16 16 16 15 18 17 18 17 17 17 18 18 15 17 14 14 14 13 14 13 13 14 13 13 15 14 13 13 13 16 18 17 15 17 15 13 12 9 7 7 4 5 4 4 2 2 1 1 1 1 1 0 0 0 0 1 1 0 0 
16 16 16 15 12 12 11 11 12 11 9 10 7 5 2 3 4 5 6 7 9 8 9 10 8 5 7 9 9 11 14 14 14 14 12 16 15 16 16 14 14 14 14 16 15 16 16 15 13 13 14 13 12 12 13 13 13 14 13 11 11 12 14 15 14 12 10 9 9 9 7 4 5 5 4 2 2 2 1 1 1 1 0 0 0 0 1 1 1 0 
16 16 16 16 15 12 11 11 12 11 9 10 7 5 4 2 4 5 6 7 9 8 8 10 8 5 7 9 8 9 9 12 12 12 11 12 11 10 9 9 12 12 14 14 14 14 13 12 13 12 12 13 13 11 11 13 13 13 13 11 10 11 11 12 14 12 10 10 9 9 7 4 4 5 4 2 2 2 1 1 1 1 0 0 0 0 1 1 1 0 
16 16 16 16 15 12 12 11 12 11 9 10 7 5 4 2 3 4 6 7 9 8 8 9 10 5 7 9 8 9 9 12 12 12 11 10 10 7 8 7 9 12 11 10 11 13 13 13 12 12 11 12 12 11 11 7 10 8 10 9 10 11 11 12 14 14 12 10 9 9 7 7 4 5 4 4 2 2 1 1 1 1 1 0 0 0 0 1 1 0 
16 16 16 16 15 12 12 11 11 12 11 10 7 5 4 2 3 4 5 6 9 8 8 9 10 8 5 9 8 9 9 9 12 12 11 10 10 6 7 7 9 8 8 9 8 11 12 12 11 10 8 10 10 12 11 7 10 9 8 10 9 10 11 11 12 14 12 10 9 9 9 7 4 5 5 4 2 2 2 1 1 1 1 0 0 0 0 1 1 1 
