P2
90 90
255
127 121 116 110 105 100 94 89 85 80 76 71 67 64 60 57 55 52 50 48 46 45 43 42 41 40 39 39 38 38 37 37 36 36 35 35 34 34 33 32 32 31 30 29 28 27 26 24 23 22 21 19 18 17 16 14 13 12 12 11 10 10 10 10 10 10 11 12 13 15 17 19 22 24 27 31 34 38 41 45 49 54 58 62 66 71 75 79 83 87 
127 121 116 110 105 100 95 89 85 80 76 71 67 64 60 57 55 52 50 48 46 45 44 42 41 41 40 39 39 38 38 38 37 37 36 36 36 35 34 34 33 32 31 30 29 28 27 26 25 23 22 21 19 18 17 16 14 13 12 12 11 10 10 10 10 11 11 12 13 15 17 19 21 24 27 30 33 37 40 44 48 52 56 60 65 69 73 77 81 85 
127 121 116 110 105 100 95 90 85 80 76 72 68 64 61 58 55 52 50 48 47 45 44 43 42 41 41 40 40 39 39 39 38 38 38 37 37 36 36 35 34 33 33 32 31 30 28 27 26 25 23 22 21 19 18 17 16 14 13 13 12 11 11 11 11 11 12 12 14 15 17 19 21 23 26 29 33 36 40 43 47 51 55 59 63 67 71 75 79 83 
127 121 116 111 105 100 95 90 85 80 76 72 68 64 61 58 55 53 51 49 47 46 44 43 43 42 41 41 40 40 40 40 39 39 39 38 38 37 37 36 36 35 34 33 32 31 30 29 27 26 25 23 22 21 19 18 17 16 14 14 13 12 12 11 11 12 12 13 14 15 17 19 21 23 26 29 32 35 39 43 46 50 54 58 62 66 70 74 78 81 
127 121 116 111 105 100 95 90 85 81 76 72 68 65 61 58 56 53 51 49 48 46 45 44 43 43 42 42 41 41 41 41 40 40 40 40 39 39 38 38 37 36 36 35 34 33 31 30 29 28 26 25 23 22 21 19 18 17 16 15 14 13 13 12 12 12 13 13 14 16 17 19 21 23 26 29 32 35 39 42 46 49 53 57 61 65 69 72 76 80 
127 122 116 111 105 100 95 90 85 81 77 72 69 65 62 59 56 54 52 50 48 47 46 45 44 43 43 43 42 42 42 42 41 41 41 41 40 40 40 39 39 38 37 36 35 34 33 32 30 29 28 26 25 23 22 21 19 18 17 16 15 14 14 13 13 13 13 14 15 16 18 19 21 24 26 29 32 35 38 42 45 49 53 56 60 64 68 71 75 78 
127 122 116 111 106 100 95 91 86 81 77 73 69 66 62 59 57 54 52 50 49 48 47 46 45 44 44 43 43 43 43 43 43 42 42 42 42 41 41 41 40 39 38 38 37 36 34 33 32 31 29 28 26 25 23 22 21 19 18 17 16 15 15 14 14 14 14 15 16 17 18 20 22 24 26 29 32 35 38 42 45 49 52 56 60 63 67 70 74 77 
127 122 116 111 106 101 96 91 86 82 78 74 70 66 63 60 58 55 53 51 50 48 47 46 46 45 45 44 44 44 44 44 44 44 43 43 43 43 42 42 41 41 40 39 38 37 36 35 33 32 31 29 28 26 25 23 22 21 19 18 17 16 16 15 15 15 15 16 16 17 19 20 22 24 27 29 32 35 38 42 45 49 52 56 59 63 66 70 73 76 
127 122 116 111 106 101 96 91 87 82 78 74 71 67 64 61 58 56 54 52 51 49 48 47 47 46 46 45 45 45 45 45 45 45 45 44 44 44 44 43 43 42 41 40 40 38 37 36 35 34 32 31 29 28 26 25 23 22 21 20 18 18 17 16 16 16 16 17 17 18 20 21 23 25 27 30 33 35 39 42 45 48 52 55 59 62 66 69 72 75 
127 122 117 111 106 101 97 92 87 83 79 75 71 68 65 62 59 57 55 53 52 50 49 48 48 47 47 46 46 46 46 46 46 46 46 46 45 45 45 44 44 43 43 42 41 40 39 38 36 35 34 32 31 29 28 26 25 23 22 21 20 19 18 17 17 17 17 18 18 19 20 22 24 26 28 30 33 36 39 42 45 49 52 55 59 62 65 69 72 75 
127 122 117 112 107 102 97 92 88 84 80 76 72 69 66 63 60 58 56 54 53 51 50 49 49 48 48 47 47 47 47 47 47 47 47 47 47 46 46 46 45 45 44 43 42 41 40 39 38 36 35 33 32 30 29 27 26 25 23 22 21 20 19 19 18 18 18 19 19 20 21 23 24 26 29 31 34 36 39 42 46 49 52 55 59 62 65 68 72 74 
127 122 117 112 107 102 98 93 89 84 80 77 73 70 67 64 61 59 57 55 54 52 51 50 50 49 49 48 48 48 48 48 48 48 48 48 48 47 47 47 46 46 45 44 43 42 41 40 39 38 36 35 33 32 30 29 27 26 24 23 22 21 20 20 19 19 19 20 20 21 22 24 25 27 29 32 34 37 40 43 46 49 52 56 59 62 65 68 71 74 
127 122 117 112 107 103 98 94 89 85 81 78 74 71 68 65 62 60 58 56 55 53 52 51 51 50 50 49 49 49 49 49 49 49 49 49 49 48 48 48 47 47 46 45 45 44 42 41 40 39 37 36 34 33 31 30 28 27 26 24 23 22 22 21 20 20 20 21 21 22 23 25 26 28 30 33 35 38 41 44 47 50 53 56 59 62 65 68 71 74 
127 122 117 113 108 103 99 94 90 86 82 79 75 72 69 66 63 61 59 57 56 54 53 52 52 51 51 50 50 50 50 50 50 50 50 50 50 49 49 49 48 48 47 46 46 45 44 42 41 40 38 37 35 34 32 31 29 28 27 26 24 23 23 22 22 21 21 22 22 23 24 26 27 29 31 34 36 39 41 44 47 50 53 56 60 63 66 69 71 74 
127 122 118 113 108 104 99 95 91 87 83 80 76 73 70 67 65 62 60 58 57 55 54 53 53 52 52 51 51 51 51 51 51 51 51 51 50 50 50 50 49 49 48 47 46 46 44 43 42 41 39 38 37 35 34 32 31 29 28 27 26 25 24 23 23 23 23 23 23 24 25 27 28 30 32 34 37 39 42 45 48 51 54 57 60 63 66 69 72 74 
127 122 118 113 109 104 100 96 92 88 84 81 77 74 71 68 66 64 61 60 58 57 55 54 54 53 53 52 52 52 52 52 52 52 51 51 51 51 51 50 50 49 49 48 47 46 45 44 43 42 40 39 37 36 34 33 32 30 29 28 27 26 25 24 24 24 24 24 25 25 26 28 29 31 33 35 38 40 43 46 49 52 55 58 61 63 66 69 72 74 
127 123 118 114 109 105 101 97 93 89 85 82 78 75 72 70 67 65 63 61 59 58 57 56 55 54 54 53 53 53 52 52 52 52 52 52 52 52 51 51 51 50 50 49 48 47 46 45 44 42 41 40 38 37 35 34 32 31 30 29 28 27 26 25 25 25 25 25 26 27 28 29 30 32 34 36 39 41 44 47 49 52 55 58 61 64 67 70 72 75 
127 123 118 114 110 105 101 97 94 90 86 83 80 76 74 71 68 66 64 62 60 59 58 57 56 55 54 54 54 53 53 53 53 53 53 53 53 52 52 52 51 51 50 49 49 48 47 46 44 43 42 40 39 38 36 35 33 32 31 30 29 28 27 26 26 26 26 26 27 28 29 30 32 33 35 37 40 42 45 48 50 53 56 59 62 65 67 70 73 75 
127 123 119 114 110 106 102 98 94 91 87 84 81 78 75 72 70 67 65 63 62 60 59 58 57 56 55 55 54 54 54 54 54 54 53 53 53 53 53 52 52 51 51 50 49 48 47 46 45 44 42 41 40 38 37 35 34 33 32 30 29 29 28 27 27 27 27 27 28 29 30 31 33 34 36 39 41 43 46 49 51 54 57 60 63 65 68 71 73 76 
127 123 119 115 111 107 103 99 95 92 88 85 82 79 76 73 71 69 67 65 63 61 60 59 58 57 56 56 55 55 55 54 54 54 54 54 54 53 53 53 52 52 51 50 50 49 48 47 45 44 43 42 40 39 38 36 35 34 32 31 30 29 29 28 28 28 28 28 29 30 31 32 34 36 38 40 42 44 47 50 52 55 58 61 63 66 69 71 74 76 
128 124 120 115 112 108 104 100 96 93 90 86 83 80 77 75 72 70 68 66 64 63 61 60 59 58 57 57 56 56 55 55 55 55 54 54 54 54 53 53 53 52 51 51 50 49 48 47 46 45 43 42 41 39 38 37 35 34 33 32 31 30 30 29 29 29 29 29 30 31 32 33 35 37 39 41 43 45 48 51 53 56 59 61 64 67 70 72 75 77 
128 124 120 116 112 108 105 101 97 94 91 87 84 82 79 76 74 71 69 67 66 64 62 61 60 59 58 58 57 56 56 56 55 55 55 55 54 54 54 53 53 52 52 51 50 49 48 47 46 45 44 42 41 40 39 37 36 35 34 33 32 31 30 30 30 30 30 30 31 32 33 35 36 38 40 42 44 46 49 52 54 57 60 62 65 68 70 73 75 78 
129 125 121 117 113 109 106 102 99 95 92 89 86 83 80 78 75 73 71 69 67 65 64 62 61 60 59 58 58 57 57 56 56 56 55 55 55 54 54 53 53 52 52 51 50 49 48 47 46 45 44 43 42 40 39 38 36 35 34 33 32 32 31 31 31 31 31 31 32 33 34 36 37 39 41 43 45 48 50 53 55 58 61 63 66 69 71 74 76 79 
129 125 121 118 114 110 107 103 100 96 93 90 87 84 81 79 76 74 72 70 68 67 65 64 62 61 60 59 59 58 57 57 56 56 56 55 55 55 54 54 53 53 52 51 50 50 49 48 47 45 44 43 42 41 39 38 37 36 35 34 33 32 32 32 32 32 32 33 33 34 35 37 38 40 42 44 46 49 51 54 56 59 62 64 67 70 72 75 77 79 
130 126 122 119 115 111 108 104 101 98 94 91 88 86 83 80 78 76 73 71 70 68 66 65 63 62 61 60 59 59 58 58 57 57 56 56 55 55 54 54 53 53 52 51 50 50 49 48 47 46 44 43 42 41 40 38 37 36 35 34 34 33 33 32 32 33 33 34 34 35 37 38 39 41 43 45 47 50 52 55 57 60 63 65 68 70 73 76 78 80 
131 127 123 120 116 112 109 106 102 99 96 93 90 87 84 82 79 77 75 73 71 69 68 66 65 63 62 61 60 60 59 58 58 57 57 56 56 55 55 54 53 53 52 51 51 50 49 48 47 46 44 43 42 41 40 39 38 37 36 35 34 34 33 33 33 33 34 35 35 36 38 39 41 42 44 46 49 51 53 56 58 61 64 66 69 71 74 77 79 81 
131 128 124 121 117 114 110 107 104 100 97 94 91 89 86 83 81 79 76 74 72 71 69 67 66 65 63 62 61 60 60 59 58 58 57 56 56 55 55 54 54 53 52 51 51 50 49 48 47 46 45 43 42 41 40 39 38 37 36 36 35 34 34 34 34 34 35 36 36 37 39 40 42 44 45 48 50 52 54 57 59 62 65 67 70 72 75 77 80 82 
133 129 125 122 118 115 112 108 105 102 99 96 93 90 87 85 82 80 78 76 74 72 70 69 67 66 65 63 62 61 60 60 59 58 57 57 56 56 55 54 54 53 52 51 51 50 49 48 47 46 45 44 42 41 40 39 38 38 37 36 36 35 35 35 35 35 36 37 37 39 40 41 43 45 47 49 51 53 56 58 61 63 66 68 71 73 76 78 81 83 
134 130 127 123 120 116 113 110 107 103 100 97 94 92 89 86 84 82 79 77 75 73 72 70 69 67 66 65 63 62 61 60 60 59 58 57 57 56 55 55 54 53 52 51 51 50 49 48 47 46 45 44 43 42 41 40 39 38 37 37 36 36 36 36 36 36 37 38 38 40 41 42 44 46 48 50 52 54 57 59 62 64 67 69 72 74 77 79 82 84 
135 132 128 125 121 118 115 111 108 105 102 99 96 93 91 88 86 83 81 79 77 75 73 72 70 68 67 66 65 63 62 61 60 60 59 58 57 56 56 55 54 53 52 52 51 50 49 48 47 46 45 44 43 42 41 40 39 38 38 37 37 37 36 36 37 37 38 39 40 41 42 44 45 47 49 51 53 55 58 60 63 65 68 70 73 76 78 80 83 85 
136 133 130 126 123 120 116 113 110 107 104 101 98 95 92 90 87 85 83 81 78 77 75 73 71 70 68 67 66 65 63 62 61 60 59 59 58 57 56 55 54 54 53 52 51 50 49 48 47 46 45 44 43 42 41 40 40 39 38 38 37 37 37 37 38 38 39 40 41 42 43 45 46 48 50 52 54 57 59 61 64 66 69 71 74 77 79 82 84 86 
138 135 131 128 125 121 118 115 112 109 106 103 100 97 94 92 89 87 84 82 80 78 76 75 73 71 70 68 67 66 65 63 62 61 60 59 58 57 57 56 55 54 53 52 51 50 49 48 47 46 45 44 43 42 42 41 40 39 39 38 38 38 38 38 39 39 40 41 42 43 44 46 48 49 51 53 56 58 60 63 65 67 70 73 75 78 80 83 85 87 
140 136 133 130 127 123 120 117 114 111 107 104 102 99 96 93 91 89 86 84 82 80 78 76 74 73 71 70 68 67 66 65 63 62 61 60 59 58 57 56 55 54 53 52 51 50 50 49 48 47 46 45 44 43 42 41 41 40 40 39 39 39 39 39 40 40 41 42 43 44 46 47 49 51 53 55 57 59 61 64 66 69 71 74 76 79 81 84 86 88 
141 138 135 132 128 125 122 119 116 112 109 106 104 101 98 95 93 90 88 86 84 82 80 78 76 74 73 71 70 68 67 66 65 63 62 61 60 59 58 57 56 55 54 53 52 51 50 49 48 47 46 45 44 43 43 42 41 41 40 40 40 40 40 40 41 41 42 43 44 46 47 49 50 52 54 56 58 60 63 65 67 70 72 75 77 80 82 85 87 89 
143 140 137 134 130 127 124 121 118 115 112 109 106 103 100 97 95 92 90 88 86 83 82 80 78 76 74 73 71 70 69 67 66 65 63 62 61 60 59 58 57 56 55 54 53 52 51 50 49 48 47 46 45 44 43 43 42 42 41 41 41 41 41 42 42 43 44 45 46 47 48 50 52 53 55 57 59 62 64 66 69 71 73 76 78 81 83 86 88 91 
145 142 139 136 133 129 126 123 120 117 114 111 108 105 102 99 97 94 92 90 88 85 83 81 80 78 76 75 73 72 70 69 67 66 65 64 62 61 60 59 58 57 56 54 53 52 51 50 49 48 47 46 46 45 44 44 43 43 42 42 42 42 42 43 43 44 45 46 47 48 50 51 53 55 57 59 61 63 65 67 70 72 75 77 80 82 85 87 89 92 
147 144 141 138 135 131 128 125 122 119 116 113 110 107 104 102 99 96 94 92 90 87 85 83 82 80 78 76 75 73 72 70 69 68 66 65 64 62 61 60 59 58 57 55 54 53 52 51 50 49 48 47 47 46 45 45 44 44 43 43 43 44 44 44 45 46 46 48 49 50 51 53 55 56 58 60 62 64 67 69 71 74 76 78 81 83 86 88 91 93 
150 146 143 140 137 134 131 127 124 121 118 115 112 109 107 104 101 99 96 94 92 89 87 85 83 82 80 78 77 75 74 72 71 69 68 67 65 64 63 61 60 59 58 57 56 54 53 52 51 50 49 49 48 47 46 46 45 45 45 45 45 45 45 46 47 47 48 49 50 52 53 55 56 58 60 62 64 66 68 70 73 75 77 80 82 85 87 89 92 94 
152 149 146 142 139 136 133 130 127 123 120 117 114 112 109 106 103 101 98 96 94 92 89 87 86 84 82 80 79 77 75 74 72 71 70 68 67 66 64 63 62 61 59 58 57 56 55 54 53 52 51 50 49 48 48 47 47 47 46 46 47 47 47 48 48 49 50 51 52 53 55 56 58 60 61 63 65 67 70 72 74 76 79 81 83 86 88 91 93 95 
154 151 148 145 141 138 135 132 129 126 123 120 117 114 111 108 106 103 101 98 96 94 92 90 88 86 84 82 81 79 77 76 74 73 72 70 69 67 66 65 64 62 61 60 59 57 56 55 54 53 52 52 51 50 50 49 49 48 48 48 48 49 49 50 50 51 52 53 54 55 57 58 60 61 63 65 67 69 71 73 76 78 80 82 85 87 90 92 94 97 
156 153 150 147 144 141 137 134 131 128 125 122 119 116 113 111 108 105 103 101 98 96 94 92 90 88 86 84 83 81 80 78 76 75 74 72 71 69 68 67 65 64 63 62 60 59 58 57 56 55 54 53 53 52 51 51 51 50 50 50 51 51 51 52 52 53 54 55 56 57 59 60 62 63 65 67 69 71 73 75 77 79 82 84 86 89 91 93 96 98 
158 155 152 149 146 143 140 137 134 131 127 124 122 119 116 113 110 108 105 103 101 98 96 94 92 90 88 87 85 83 82 80 79 77 76 74 73 72 70 69 68 66 65 64 63 61 60 59 58 57 56 56 55 54 54 53 53 53 53 53 53 53 54 54 55 56 56 57 59 60 61 62 64 66 67 69 71 73 75 77 79 81 83 85 88 90 92 95 97 99 
161 158 155 152 148 145 142 139 136 133 130 127 124 121 118 115 113 110 108 105 103 101 99 96 94 93 91 89 87 86 84 83 81 80 78 77 75 74 73 71 70 69 67 66 65 64 63 62 61 60 59 58 57 57 56 56 56 55 55 55 56 56 56 57 57 58 59 60 61 62 64 65 66 68 70 71 73 75 77 79 81 83 85 87 89 92 94 96 98 101 
163 160 157 154 151 148 145 141 138 135 132 129 126 123 121 118 115 113 110 108 105 103 101 99 97 95 93 91 90 88 86 85 83 82 81 79 78 76 75 74 73 71 70 69 68 66 65 64 63 62 61 61 60 59 59 59 58 58 58 58 58 59 59 60 60 61 62 63 64 65 66 67 69 70 72 74 75 77 79 81 83 85 87 89 91 93 96 98 100 102 
165 162 159 156 153 150 147 144 141 138 135 132 129 126 123 120 118 115 113 110 108 106 103 101 99 97 96 94 92 91 89 87 86 85 83 82 80 79 78 77 75 74 73 72 70 69 68 67 66 65 64 64 63 63 62 62 61 61 61 61 62 62 62 63 63 64 65 66 67 68 69 70 72 73 75 76 78 79 81 83 85 87 89 91 93 95 97 99 102 104 
167 164 161 158 155 152 149 146 143 140 137 134 131 128 125 123 120 118 115 113 110 108 106 104 102 100 98 96 95 93 92 90 89 87 86 85 83 82 81 79 78 77 76 75 73 72 71 70 69 69 68 67 66 66 65 65 65 65 65 65 65 65 66 66 67 67 68 69 70 71 72 73 75 76 77 79 80 82 84 85 87 89 91 93 95 97 99 101 103 105 
169 166 163 160 157 154 151 148 145 142 139 136 133 131 128 125 122 120 117 115 113 111 108 106 104 103 101 99 97 96 94 93 91 90 89 87 86 85 84 82 81 80 79 78 77 76 75 74 73 72 71 71 70 70 69 69 69 68 68 69 69 69 69 70 70 71 72 72 73 74 75 76 78 79 80 82 83 85 86 88 90 91 93 95 97 99 101 103 105 107 
171 168 165 162 159 156 153 150 147 144 141 139 136 133 130 127 125 122 120 118 115 113 111 109 107 105 103 102 100 99 97 96 94 93 92 90 89 88 87 86 84 83 82 81 80 79 78 77 77 76 75 74 74 73 73 73 73 72 72 73 73 73 73 74 74 75 75 76 77 78 79 80 81 82 83 85 86 88 89 91 92 94 96 97 99 101 103 105 107 109 
173 170 167 164 161 158 155 152 149 146 144 141 138 135 132 130 127 125 122 120 118 116 114 112 110 108 106 104 103 101 100 99 97 96 95 93 92 91 90 89 88 87 86 85 84 83 82 81 80 80 79 79 78 78 77 77 77 77 77 77 77 77 77 78 78 79 79 80 81 82 83 84 85 86 87 88 89 91 92 93 95 97 98 100 102 103 105 107 109 111 
174 172 169 166 163 160 157 154 151 148 146 143 140 137 135 132 129 127 125 122 120 118 116 114 112 111 109 107 106 104 103 102 100 99 98 97 96 95 93 92 91 90 90 89 88 87 86 85 85 84 83 83 82 82 82 81 81 81 81 81 81 82 82 82 83 83 84 84 85 86 87 87 88 89 90 91 93 94 95 96 98 99 101 102 104 106 107 109 111 113 
176 173 170 168 165 162 159 156 153 150 148 145 142 139 137 134 132 129 127 125 123 121 119 117 115 113 112 110 109 107 106 105 103 102 101 100 99 98 97 96 95 94 93 93 92 91 90 90 89 88 88 87 87 87 86 86 86 86 86 86 86 86 86 87 87 88 88 89 89 90 91 91 92 93 94 95 96 97 98 100 101 102 104 105 107 108 110 112 113 115 
177 174 172 169 166 163 160 158 155 152 149 147 144 141 139 136 134 132 129 127 125 123 121 119 118 116 114 113 111 110 109 108 107 105 104 103 102 102 101 100 99 98 97 97 96 95 95 94 93 93 92 92 92 91 91 91 91 91 91 91 91 91 91 92 92 92 93 93 94 94 95 96 96 97 98 99 100 101 102 103 104 105 107 108 109 111 112 114 115 117 
178 176 173 170 167 165 162 159 156 154 151 148 146 143 141 138 136 134 131 129 127 125 124 122 120 119 117 116 114 113 112 111 110 109 108 107 106 105 104 104 103 102 102 101 100 100 99 99 98 98 97 97 97 96 96 96 96 96 96 96 96 96 96 97 97 97 98 98 98 99 99 100 101 101 102 103 104 104 105 106 107 108 110 111 112 113 115 116 118 119 
179 177 174 171 169 166 163 161 158 155 153 150 147 145 143 140 138 136 134 132 130 128 126 124 123 121 120 119 117 116 115 114 113 112 111 110 110 109 108 108 107 106 106 105 105 104 104 103 103 103 102 102 102 102 101 101 101 101 101 101 101 101 101 102 102 102 102 103 103 104 104 105 105 106 106 107 108 108 109 110 111 112 113 114 115 116 117 119 120 122 
180 177 175 172 170 167 164 162 159 156 154 151 149 147 144 142 140 138 136 134 132 130 128 127 125 124 123 121 120 119 118 117 116 115 115 114 113 113 112 112 111 111 110 110 109 109 109 108 108 108 107 107 107 107 107 107 106 106 106 106 106 107 107 107 107 107 108 108 108 108 109 109 110 110 110 111 112 112 113 113 114 115 116 117 118 119 120 121 122 124 
180 178 175 173 170 168 165 163 160 158 155 153 150 148 146 144 141 139 138 136 134 132 131 129 128 126 125 124 123 122 121 120 120 119 118 118 117 117 116 116 115 115 115 114 114 114 113 113 113 113 113 112 112 112 112 112 112 112 112 112 112 112 112 112 112 112 113 113 113 113 114 114 114 114 115 115 116 116 117 117 118 118 119 120 121 122 123 124 125 126 
181 178 176 173 171 168 166 163 161 159 156 154 152 149 147 145 143 141 139 138 136 134 133 132 130 129 128 127 126 125 124 124 123 122 122 121 121 121 120 120 120 119 119 119 119 119 118 118 118 118 118 118 118 118 117 117 117 117 117 117 117 117 117 118 118 118 118 118 118 118 118 119 119 119 119 120 120 120 120 121 121 122 122 123 124 124 125 126 127 128 
181 178 176 174 171 169 166 164 162 159 157 155 153 151 148 146 145 143 141 139 138 136 135 134 133 131 130 130 129 128 127 127 126 126 125 125 125 124 124 124 124 124 124 124 123 123 123 123 123 123 123 123 123 123 123 123 123 123 123 123 123 123 123 123 123 123 123 123 123 123 123 123 124 124 124 124 124 124 124 125 125 125 126 126 127 127 128 129 129 130 
181 178 176 174 171 169 167 164 162 160 158 156 154 152 150 148 146 144 143 141 140 138 137 136 135 134 133 132 132 131 130 130 130 129 129 129 129 128 128 128 128 128 128 128 128 128 128 128 128 128 128 128 128 128 128 128 128 128 128 128 128 128 128 128 128 128 128 128 128 128 128 128 128 128 128 128 128 128 128 128 129 129 129 129 130 130 131 131 132 133 
180 178 176 173 171 169 167 165 162 160 158 156 154 152 151 149 147 146 144 143 141 140 139 138 137 136 135 135 134 134 133 133 133 133 132 132 132 132 132 132 133 133 133 133 133 133 133 133 134 134 134 134 134 134 134 134 134 134 134 134 134 134 134 134 134 134 134 134 133 133 133 133 133 133 133 133 132 132 132 132 132 132 132 132 133 133 133 134 134 135 
179 177 175 173 171 169 167 165 163 161 159 157 155 153 151 150 148 147 145 144 143 142 141 140 139 138 138 137 137 137 136 136 136 136 136 136 136 136 136 137 137 137 137 138 138 138 138 138 139 139 139 139 139 139 139 140 140 140 140 140 140 139 139 139 139 139 139 139 139 138 138 138 138 137 137 137 137 136 136 136 136 136 135 135 135 135 136 136 136 137 
178 176 174 172 170 168 166 164 162 161 159 157 155 154 152 150 149 148 146 145 144 143 143 142 141 141 140 140 139 139 139 139 139 139 139 140 140 140 140 141 141 141 142 142 142 143 143 143 144 144 144 144 145 145 145 145 145 145 145 145 145 145 145 145 144 144 144 144 144 143 143 143 142 142 142 141 141 140 140 140 139 139 139 138 138 138 138 138 138 138 
177 175 173 171 170 168 166 164 162 160 159 157 155 154 152 151 150 149 148 147 146 145 144 144 143 143 142 142 142 142 142 142 142 142 143 143 143 144 144 145 145 146 146 147 147 148 148 148 149 149 149 150 150 150 150 150 150 150 150 150 150 150 150 150 150 149 149 149 149 148 148 147 147 146 146 145 145 144 144 143 143 142 142 141 141 141 140 140 140 140 
176 174 172 170 169 167 165 163 162 160 158 157 155 154 153 151 150 149 148 148 147 146 146 145 145 145 144 144 144 144 145 145 145 146 146 146 147 148 148 149 149 150 150 151 152 152 153 153 154 154 154 155 155 155 155 156 156 156 156 156 156 155 155 155 155 155 154 154 153 153 152 152 151 151 150 149 149 148 147 147 146 145 145 144 143 143 142 142 142 142 
174 172 171 169 167 166 164 162 161 159 158 156 155 154 153 152 151 150 149 148 148 147 147 147 146 146 146 146 147 147 147 148 148 149 149 150 150 151 152 152 153 154 155 155 156 157 157 158 158 159 159 160 160 160 160 161 161 161 161 161 161 161 160 160 160 159 159 159 158 158 157 156 156 155 154 153 153 152 151 150 149 148 147 147 146 145 144 144 143 143 
172 171 169 167 166 164 163 161 160 158 157 156 155 154 153 152 151 150 150 149 149 148 148 148 148 148 148 148 149 149 150 150 151 151 152 153 154 155 155 156 157 158 159 159 160 161 162 162 163 163 164 164 165 165 165 166 166 166 166 166 166 166 165 165 165 164 164 163 163 162 161 161 160 159 158 157 156 155 154 153 152 151 150 149 148 147 146 146 145 144 
170 169 167 166 164 163 161 160 159 157 156 155 154 153 152 152 151 150 150 150 149 149 149 149 149 150 150 150 151 151 152 153 153 154 155 156 157 158 159 160 161 162 163 163 164 165 166 167 167 168 169 169 169 170 170 170 171 171 171 171 170 170 170 170 169 169 168 168 167 166 166 165 164 163 162 161 160 158 157 156 155 154 152 151 150 149 148 147 146 145 
168 166 165 164 162 161 160 158 157 156 155 154 153 153 152 151 151 151 150 150 150 150 150 150 151 151 151 152 153 153 154 155 156 157 158 159 160 161 162 163 164 165 166 167 168 169 170 171 172 172 173 173 174 174 175 175 175 175 175 175 175 175 175 174 174 173 173 172 171 170 170 169 168 167 165 164 163 162 160 159 157 156 155 153 152 151 149 148 147 146 
165 164 163 161 160 159 158 157 156 155 154 153 153 152 151 151 151 150 150 150 150 151 151 151 152 152 153 154 154 155 156 157 158 159 160 162 163 164 165 166 167 169 170 171 172 173 174 175 176 176 177 178 178 179 179 179 179 180 180 180 179 179 179 178 178 177 177 176 175 174 173 172 171 170 169 167 166 164 163 161 160 158 157 155 154 152 151 149 148 147 
162 161 160 159 158 157 156 155 154 153 153 152 151 151 151 150 150 150 150 150 151 151 151 152 153 153 154 155 156 157 158 159 160 161 163 164 165 167 168 169 171 172 173 174 175 177 178 179 179 180 181 182 182 183 183 183 184 184 184 184 183 183 183 182 182 181 181 180 179 178 177 176 174 173 172 170 169 167 165 164 162 160 159 157 155 153 152 150 149 148 
159 158 157 156 155 155 154 153 152 152 151 151 150 150 150 150 150 150 150 150 151 151 152 152 153 154 155 156 157 158 160 161 162 163 165 166 168 169 171 172 173 175 176 177 179 180 181 182 183 184 185 185 186 186 187 187 187 188 188 187 187 187 187 186 186 185 184 183 182 181 180 179 178 176 175 173 171 170 168 166 164 162 160 158 156 154 153 151 149 148 
156 155 154 154 153 152 151 151 150 150 149 149 149 149 149 149 149 149 150 150 151 151 152 153 154 155 156 157 158 160 161 162 164 165 167 168 170 171 173 174 176 177 179 180 182 183 184 185 186 187 188 189 189 190 190 191 191 191 191 191 191 191 190 190 189 188 188 187 186 184 183 182 180 179 177 175 174 172 170 168 166 163 161 159 157 155 153 151 150 148 
153 152 151 151 150 149 149 148 148 148 148 147 147 147 148 148 148 148 149 150 150 151 152 153 154 155 157 158 159 161 162 164 165 167 168 170 172 173 175 177 178 180 181 183 184 186 187 188 189 190 191 192 192 193 194 194 194 194 194 194 194 194 193 193 192 191 191 190 188 187 186 184 183 181 179 177 175 173 171 169 167 165 162 160 158 156 153 151 149 148 
149 149 148 148 147 147 146 146 146 146 146 146 146 146 146 147 147 148 148 149 150 151 152 153 154 156 157 158 160 161 163 165 166 168 170 172 173 175 177 179 180 182 183 185 187 188 189 191 192 193 194 195 195 196 196 197 197 197 197 197 197 197 196 196 195 194 193 192 191 190 188 187 185 183 181 179 177 175 173 170 168 165 163 161 158 156 154 151 149 147 
146 145 145 145 144 144 144 143 143 143 143 144 144 144 145 145 146 147 147 148 149 150 152 153 154 156 157 159 160 162 164 165 167 169 171 173 175 176 178 180 182 184 185 187 188 190 191 193 194 195 196 197 198 198 199 199 200 200 200 200 200 199 199 198 198 197 196 195 193 192 190 189 187 185 183 181 178 176 174 171 169 166 163 161 158 156 153 151 149 147 
142 142 142 141 141 141 141 141 141 141 141 142 142 142 143 144 144 145 146 147 148 150 151 152 154 155 157 159 160 162 164 166 168 170 172 174 175 177 179 181 183 185 187 188 190 192 193 194 196 197 198 199 200 200 201 202 202 202 202 202 202 202 201 200 200 199 198 197 195 194 192 190 188 186 184 182 179 177 174 172 169 166 164 161 158 155 153 150 148 146 
138 138 138 138 138 138 138 138 138 139 139 139 140 141 141 142 143 144 145 146 147 149 150 152 153 155 157 158 160 162 164 166 168 170 172 174 176 178 180 182 184 186 188 189 191 193 194 196 197 198 199 200 201 202 203 203 204 204 204 204 204 203 203 202 201 201 199 198 197 195 193 191 189 187 185 183 180 177 175 172 169 166 163 161 158 155 152 149 147 145 
135 135 135 135 135 135 135 135 136 136 136 137 138 138 139 140 141 142 143 145 146 148 149 151 152 154 156 158 160 162 164 166 168 170 172 174 176 178 180 182 184 186 188 190 192 194 195 197 198 199 201 202 203 203 204 205 205 205 205 205 205 205 204 204 203 202 201 199 198 196 194 192 190 188 185 183 180 178 175 172 169 166 163 160 157 154 151 148 146 143 
131 131 131 131 131 132 132 132 133 133 134 135 135 136 137 138 139 141 142 143 145 146 148 149 151 153 155 157 159 161 163 165 167 169 172 174 176 178 180 182 184 186 188 190 192 194 196 197 199 200 201 202 203 204 205 206 206 206 206 206 206 206 205 205 204 203 202 200 199 197 195 193 191 188 186 183 180 177 174 171 168 165 162 159 156 153 150 147 144 142 
127 127 127 128 128 128 129 129 130 131 131 132 133 134 135 136 137 139 140 141 143 145 146 148 150 152 154 156 158 160 162 164 166 169 171 173 175 177 180 182 184 186 188 190 192 194 195 197 199 200 201 203 204 205 205 206 206 207 207 207 207 207 206 205 205 203 202 201 199 197 195 193 191 188 186 183 180 177 174 171 167 164 161 158 155 151 148 145 142 140 
123 123 124 124 125 125 126 126 127 128 129 129 130 131 133 134 135 136 138 139 141 143 144 146 148 150 152 154 156 158 161 163 165 167 170 172 174 176 179 181 183 185 187 189 191 193 195 197 198 200 201 202 203 204 205 206 207 207 207 207 207 207 206 206 205 204 202 201 199 197 195 193 190 188 185 182 179 176 173 170 166 163 160 156 153 150 147 143 141 138 
119 120 120 121 121 122 122 123 124 125 126 127 128 129 130 131 133 134 136 137 139 141 142 144 146 148 150 152 154 157 159 161 163 166 168 170 173 175 177 180 182 184 186 188 190 192 194 196 197 199 200 202 203 204 205 206 206 207 207 207 207 207 206 205 204 203 202 200 199 197 195 192 190 187 184 181 178 175 172 168 165 161 158 154 151 148 145 141 138 135 
115 116 116 117 118 118 119 120 121 122 123 124 125 126 127 129 130 132 133 135 136 138 140 142 144 146 148 150 152 155 157 159 161 164 166 168 171 173 175 178 180 182 184 187 189 191 192 194 196 198 199 200 202 203 204 205 205 206 206 206 206 206 205 205 204 203 201 200 198 196 194 191 189 186 183 180 177 173 170 166 163 159 156 152 149 146 142 139 136 133 
111 112 113 113 114 115 116 117 118 119 120 121 122 123 125 126 127 129 130 132 134 136 137 139 141 143 146 148 150 152 154 157 159 161 164 166 168 171 173 176 178 180 182 184 187 189 191 192 194 196 197 199 200 201 202 203 204 204 205 205 205 205 204 204 203 202 200 199 197 195 192 190 187 184 181 178 175 171 168 164 161 157 154 150 147 143 140 137 133 130 
108 108 109 110 111 112 113 114 115 116 117 118 119 120 122 123 125 126 128 129 131 133 135 137 139 141 143 145 147 149 152 154 156 159 161 163 166 168 171 173 175 177 180 182 184 186 188 190 192 194 195 197 198 199 200 201 202 203 203 203 203 203 203 202 201 200 199 197 195 193 191 188 185 182 179 176 173 169 166 162 158 155 151 148 144 140 137 134 131 128 
104 105 106 106 107 108 109 110 111 112 114 115 116 117 119 120 122 123 125 126 128 130 132 134 136 138 140 142 144 146 149 151 153 156 158 160 163 165 167 170 172 174 177 179 181 183 185 187 189 191 193 194 195 197 198 199 200 200 201 201 201 201 201 200 199 198 197 195 193 191 189 186 183 180 177 174 170 167 163 160 156 152 148 145 141 138 134 131 128 125 
100 101 102 103 104 105 106 107 108 109 110 112 113 114 116 117 118 120 122 123 125 127 129 130 132 134 136 139 141 143 145 148 150 152 155 157 159 162 164 166 169 171 173 176 178 180 182 184 186 188 189 191 193 194 195 196 197 198 198 199 199 199 198 198 197 196 194 193 191 189 186 184 181 178 175 171 168 164 160 157 153 149 145 142 138 134 131 128 124 122 
97 98 99 100 101 102 103 104 105 106 107 108 110 111 112 114 115 117 118 120 122 123 125 127 129 131 133 135 137 139 142 144 146 148 151 153 155 158 160 163 165 167 170 172 174 176 178 180 182 184 186 188 189 191 192 193 194 195 195 196 196 196 195 195 194 193 191 190 188 186 183 181 178 175 172 168 165 161 157 154 150 146 142 138 135 131 128 124 121 118 
93 94 95 96 97 98 100 101 102 103 104 105 107 108 109 111 112 113 115 117 118 120 122 123 125 127 129 131 133 136 138 140 142 144 147 149 151 154 156 158 161 163 165 168 170 172 174 176 178 180 182 184 185 187 188 189 190 191 192 192 193 193 192 192 191 190 188 187 185 183 180 178 175 172 168 165 161 158 154 150 146 143 139 135 131 128 124 121 118 115 
90 91 92 93 94 95 96 97 99 100 101 102 103 105 106 107 109 110 112 113 115 116 118 120 122 123 125 127 129 131 134 136 138 140 142 145 147 149 152 154 156 159 161 163 165 168 170 172 174 176 178 179 181 183 184 185 187 187 188 189 189 189 189 188 187 186 185 183 181 179 177 174 171 168 165 161 158 154 151 147 143 139 135 131 128 124 121 117 114 111 
