P2
90 90
255
30 30 31 32 31 25 29 59 56 56 58 54 51 53 53 53 55 57 59 52 53 54 54 66 59 62 54 24 21 20 19 19 18 13 14 13 22 14 14 13 24 24 31 28 28 35 32 45 38 35 32 27 27 28 19 18 18 18 18 20 21 21 19 17 16 35 55 53 57 54 37 40 42 41 37 34 37 43 37 46 47 43 36 35 43 45 61 62 60 47
27 26 28 31 28 28 35 54 60 60 59 59 56 53 61 61 63 62 59 64 64 70 72 73 75 73 73 31 18 21 21 20 18 18 16 13 14 14 13 13 31 59 59 46 28 25 32 33 34 35 32 27 34 31 21 18 18 18 17 20 20 21 21 18 16 30 42 42 42 38 38 40 39 39 35 34 31 34 34 30 27 28 25 26 33 42 60 67 53 41
46 52 51 47 37 40 25 43 59 57 58 58 59 61 61 61 63 62 65 68 76 78 80 82 77 74 80 48 17 20 20 18 21 21 18 17 16 16 14 15 31 60 59 46 35 25 27 27 34 30 26 30 36 35 21 19 19 18 18 18 19 20 19 17 17 25 36 36 39 39 40 45 40 39 37 37 40 44 42 42 34 31 34 36 38 42 42 41 46 45
62 62 64 64 63 65 65 57 56 60 60 66 71 69 69 68 70 72 74 77 74 75 81 83 76 75 74 75 33 17 19 19 20 19 20 18 16 15 14 15 20 20 60 71 35 35 35 27 29 31 28 33 36 34 19 20 20 21 20 18 17 17 18 18 17 27 36 49 49 53 72 72 64 65 37 37 40 44 44 64 58 58 63 68 75 63 51 48 59 59
63 63 67 68 70 70 70 76 69 69 69 56 52 52 59 65 70 72 74 77 74 73 74 81 77 79 65 58 52 18 20 21 19 18 19 17 16 16 16 16 15 15 44 71 58 52 32 32 33 35 36 40 53 41 38 22 20 22 20 20 20 21 22 19 17 17 23 29 27 27 30 33 36 65 65 63 73 78 78 64 75 73 69 62 55 42 49 49 40 65
65 65 69 70 70 66 69 58 58 76 60 51 51 46 41 65 58 47 53 81 74 55 48 50 39 32 41 40 33 22 20 21 21 20 21 19 16 19 19 17 27 36 44 74 71 52 46 38 36 37 42 54 66 56 52 29 19 21 21 21 21 22 23 18 18 17 16 21 20 19 21 22 21 68 70 70 63 65 65 65 63 82 82 50 37 41 58 47 36 36
65 65 58 71 60 54 53 45 48 58 58 58 55 48 41 38 38 38 36 50 46 55 40 39 37 37 31 28 30 30 22 22 21 21 20 20 19 18 19 20 27 36 44 62 76 68 62 51 45 48 63 77 78 97 75 40 24 24 20 20 22 25 22 18 18 18 15 19 21 33 28 32 37 35 27 27 16 65 17 34 63 66 88 48 46 40 44 39 33 33
46 46 58 71 46 46 47 43 50 47 48 53 48 42 48 38 38 47 50 32 33 38 39 43 36 30 30 25 21 23 21 24 22 21 19 18 19 23 36 45 61 92 90 81 76 73 66 63 65 70 99 100 120 111 71 71 38 25 23 19 23 27 22 18 19 17 17 19 18 21 44 50 74 35 34 34 16 17 17 44 66 70 71 42 47 46 45 45 47 38
48 48 47 52 46 43 53 54 46 46 50 48 47 47 42 37 46 47 50 32 41 37 37 43 38 31 31 25 22 22 22 23 23 23 22 19 21 39 72 85 103 126 126 94 85 78 82 80 88 133 128 132 113 92 92 78 49 28 26 20 26 27 20 18 21 19 17 18 15 17 24 25 32 94 109 105 34 36 36 78 70 44 45 72 62 59 72 67 47 47
51 51 51 48 53 42 47 59 52 59 54 54 43 43 49 48 56 45 44 37 48 41 38 42 36 26 26 24 22 22 22 21 21 21 19 20 46 84 124 142 149 154 126 128 116 103 109 123 161 158 156 142 124 124 93 67 41 23 26 20 23 21 20 19 20 18 17 19 19 17 20 28 27 86 139 139 105 95 95 54 44 82 74 65 57 62 59 60 43 43
50 50 54 48 52 44 40 58 76 75 78 78 47 61 56 55 60 54 42 37 47 44 44 44 24 23 23 23 21 21 23 23 23 24 30 29 80 136 148 161 168 158 159 151 139 142 151 161 169 165 153 132 119 119 92 63 63 30 23 20 23 21 18 19 17 18 19 20 19 19 20 25 30 45 82 82 104 83 83 54 82 82 81 65 98 101 104 104 98 73
49 49 44 44 44 39 38 46 50 50 76 76 68 65 61 56 48 49 43 38 43 44 44 34 24 23 24 21 19 19 27 31 31 32 32 70 157 162 168 176 177 172 174 171 152 155 163 170 161 143 143 132 119 119 91 63 63 30 26 25 22 20 18 18 17 23 24 20 23 21 14 13 16 38 38 38 85 96 96 89 60 81 81 109 98 101 104 101 111 73
46 46 45 43 40 41 37 36 32 32 34 85 85 85 57 56 54 46 44 38 46 48 46 28 23 23 23 20 20 23 27 42 48 57 123 165 165 173 180 182 177 173 173 175 159 161 168 170 152 144 144 136 115 115 89 53 63 30 26 26 21 20 17 19 19 23 33 29 23 21 17 14 14 16 21 26 45 53 53 71 60 107 109 109 86 80 101 101 111 103
49 44 42 40 45 44 38 32 34 34 34 42 42 65 70 65 62 50 45 43 49 47 36 24 24 23 23 20 20 23 46 84 95 126 165 170 173 173 179 178 175 172 172 174 163 166 168 161 155 162 151 136 104 104 74 53 53 30 27 23 21 20 17 19 27 30 41 32 25 22 22 17 14 14 14 15 15 55 55 79 88 107 109 86 86 80 31 37 53 48
44 41 38 39 37 37 35 33 35 34 34 28 28 29 74 72 66 60 50 50 47 31 22 20 22 20 20 18 21 26 61 127 150 179 178 175 167 164 177 175 170 170 171 175 173 169 168 166 165 162 159 136 104 104 74 48 53 29 23 20 18 19 28 29 57 43 41 14 13 13 13 12 12 15 16 16 16 15 21 25 35 47 76 86 33 33 31 37 52 85
41 41 41 39 37 39 39 33 35 28 28 27 30 30 50 48 48 59 71 52 28 20 21 21 21 21 16 17 25 22 33 164 179 181 182 169 153 134 136 156 160 174 177 179 175 170 167 164 171 168 157 149 116 116 71 48 30 30 23 19 21 29 42 50 57 25 20 18 13 12 11 12 12 12 13 16 17 14 14 18 18 20 21 25 33 20 20 27 52 30
41 41 40 38 38 39 39 42 46 48 43 47 49 49 53 28 32 43 66 15 17 19 20 20 21 18 16 17 25 22 33 164 108 149 168 166 121 103 149 178 168 183 184 182 181 177 173 171 175 169 157 123 123 64 71 43 28 26 24 25 34 44 52 45 36 13 13 13 13 12 12 11 12 12 12 14 14 15 13 14 18 24 24 20 21 20 21 21 22 23
40 40 40 38 38 40 45 44 39 37 41 39 39 40 40 39 36 15 15 18 17 18 18 20 18 15 16 23 28 27 23 66 108 38 56 64 21 25 34 175 185 182 184 187 186 186 184 180 175 168 170 167 36 64 37 28 22 25 29 35 36 30 14 10 10 12 12 12 12 12 12 12 13 12 11 12 14 13 13 13 12 18 21 18 20 20 20 22 25 26
39 39 35 31 37 49 47 32 25 27 35 35 27 27 25 25 14 16 17 20 16 17 17 16 15 15 15 18 30 39 34 25 25 29 18 32 30 30 28 25 49 65 73 188 194 197 186 191 173 167 147 94 19 20 21 19 15 22 20 16 11 12 12 12 12 13 13 12 12 12 12 12 12 13 12 11 12 11 12 13 11 18 21 22 21 27 27 25 25 27
28 28 36 37 39 41 47 32 25 38 41 48 53 51 47 15 15 17 18 18 15 14 14 14 17 17 18 24 37 39 34 36 38 34 34 40 40 40 35 34 34 24 21 20 104 104 118 128 112 82 40 19 18 20 20 13 14 14 14 13 12 11 8 12 14 14 14 14 12 11 13 13 12 12 12 11 12 11 10 13 12 16 19 25 27 25 19 20 21 27
25 25 28 35 39 41 46 46 44 38 46 49 52 54 59 16 16 17 14 15 17 15 15 15 19 19 22 32 35 39 38 39 42 34 37 36 35 35 32 31 31 35 31 29 29 20 17 20 20 18 21 18 16 16 9 10 10 11 11 11 12 13 18 17 13 14 14 16 14 12 13 13 12 12 12 11 12 12 11 12 13 16 18 18 18 21 20 20 26 19
28 25 35 35 36 39 39 42 44 43 28 27 27 27 28 15 17 16 15 14 16 17 17 17 19 19 25 33 30 34 36 39 31 31 32 36 33 33 28 26 26 27 29 29 29 27 20 19 19 21 19 16 12 11 10 11 12 12 12 13 14 16 20 16 12 14 14 16 15 12 12 11 11 11 12 13 12 12 11 11 12 15 17 20 29 30 27 38 25 16
28 25 25 29 28 28 28 29 31 28 24 25 24 26 18 18 16 16 16 15 15 18 17 17 18 18 22 27 30 37 32 33 23 25 29 33 23 23 22 23 23 22 19 22 22 19 19 19 19 17 12 12 11 12 11 13 13 13 15 15 19 15 15 17 18 20 20 20 23 15 14 14 12 13 12 12 14 17 13 11 8 13 13 12 23 33 23 28 23 20
27 24 25 26 24 28 28 25 25 25 28 30 29 28 16 14 15 19 18 17 18 18 17 17 19 21 22 25 26 31 27 26 21 20 29 22 22 19 19 20 20 18 19 16 19 18 18 17 15 13 11 11 12 10 9 11 13 15 15 15 12 12 14 19 20 21 22 21 22 21 21 18 17 16 15 16 18 16 10 11 8 10 10 12 15 19 26 26 19 19
25 24 29 36 24 25 25 30 27 27 44 48 42 28 14 14 15 17 18 16 17 17 17 17 17 18 20 21 25 25 24 23 21 17 23 21 19 19 19 20 20 18 15 16 17 20 17 16 15 14 13 13 12 12 11 11 14 12 12 10 12 12 17 18 19 21 22 22 21 20 21 19 18 17 17 14 10 7 11 11 11 10 10 12 10 17 30 36 28 28
28 28 49 54 32 31 30 44 41 41 53 58 48 20 14 15 18 18 14 14 16 16 17 16 16 15 18 21 21 20 22 19 15 19 20 19 19 19 18 18 17 17 17 17 20 18 18 15 14 14 14 12 13 14 11 10 11 12 9 9 11 13 16 18 19 20 19 20 19 13 18 17 21 19 14 8 8 8 6 12 12 11 9 10 10 13 27 38 40 38
46 50 61 59 52 48 44 44 56 56 59 59 44 16 17 17 21 19 13 14 16 18 18 18 18 15 17 20 21 19 21 18 18 19 19 17 16 16 16 18 17 17 18 18 16 18 13 12 13 14 13 12 12 14 12 12 11 12 11 9 13 16 17 14 14 13 13 11 13 10 9 7 6 8 11 8 5 7 5 9 12 11 9 9 8 10 17 25 25 24
42 57 59 56 57 57 56 54 56 59 38 34 19 16 17 14 16 19 13 15 17 19 19 19 18 15 15 19 20 19 20 17 20 20 19 19 17 14 17 17 17 19 18 15 17 16 12 12 13 13 12 10 9 9 11 12 11 10 10 10 13 19 17 11 9 8 5 9 9 9 9 7 8 9 8 9 9 9 6 6 13 13 10 7 8 8 11 17 18 19
26 38 38 37 57 57 54 38 38 38 19 15 16 18 17 17 16 17 16 18 16 16 19 19 18 18 17 16 16 18 16 14 17 19 19 18 17 14 17 17 16 18 16 15 16 14 12 13 13 12 11 10 9 9 9 11 12 11 9 10 10 16 15 9 4 5 4 8 8 5 5 4 6 8 5 8 9 9 8 5 5 11 10 5 7 7 11 13 20 18
26 24 26 26 26 26 26 24 24 20 15 14 19 18 17 17 19 17 15 18 16 16 16 18 18 17 17 17 15 16 17 17 17 17 18 17 18 18 17 16 12 15 17 18 16 12 13 13 13 12 11 10 10 9 10 11 12 11 9 10 12 17 14 4 3 6 7 7 6 5 4 4 2 4 3 4 5 5 5 3 3 8 7 5 5 7 12 16 20 20
28 28 27 26 26 26 27 26 26 20 18 17 17 19 19 19 19 17 15 16 16 15 15 16 18 17 17 16 16 16 18 16 15 15 13 16 16 16 14 12 12 13 14 16 12 11 12 13 12 12 11 12 10 9 10 11 12 11 9 10 12 15 11 4 2 4 9 10 7 4 9 9 8 4 2 4 4 6 5 5 3 8 9 9 6 7 7 10 18 22
26 26 28 27 24 24 21 18 18 17 19 19 15 15 16 18 19 17 15 14 16 15 15 18 18 17 15 15 14 15 15 16 14 13 13 12 12 12 12 12 15 14 15 12 11 12 13 13 12 12 11 12 12 11 10 8 8 9 8 8 8 11 7 5 2 3 8 10 4 3 8 12 11 6 6 3 8 6 5 5 3 7 9 8 4 4 7 10 14 20
29 28 31 32 25 17 13 13 16 18 19 18 15 17 15 18 19 19 18 14 16 18 18 18 18 17 16 16 17 18 15 16 16 17 17 13 12 12 12 13 17 16 12 10 12 12 12 12 11 11 11 10 10 11 9 9 7 6 7 6 10 7 6 4 2 3 6 7 6 3 4 3 5 11 9 3 4 9 9 6 3 5 8 6 3 5 8 8 13 19
29 28 24 16 14 16 16 18 17 17 17 17 16 19 17 14 16 18 16 17 16 17 17 17 18 16 17 17 18 18 18 16 16 14 15 16 13 16 18 14 12 13 13 13 14 11 12 12 9 11 8 7 10 10 11 8 8 6 7 8 5 5 6 4 4 5 6 6 6 5 5 3 3 5 7 4 5 3 5 5 4 4 6 3 4 5 8 12 13 17
30 30 20 16 16 15 15 18 18 17 15 19 16 18 17 15 15 16 15 17 18 18 16 16 17 14 16 16 17 18 16 14 13 13 13 13 16 16 15 11 12 14 13 15 16 11 11 11 9 9 9 11 10 10 11 7 7 8 11 11 4 5 7 10 11 9 10 6 6 5 5 5 3 2 3 3 3 5 3 1 1 2 2 3 5 8 10 13 13 17
32 26 22 22 16 16 16 16 18 18 18 21 25 25 19 18 20 20 17 16 15 17 19 18 18 16 15 15 15 15 16 18 18 17 15 15 17 17 15 14 13 13 11 12 13 11 10 11 11 11 11 11 10 11 8 8 10 12 12 7 5 6 7 10 12 13 10 10 9 9 7 5 4 2 2 3 3 3 4 3 1 0 0 5 11 12 10 8 11 14
27 27 21 19 17 17 16 16 16 19 20 24 26 30 22 21 21 20 21 18 14 15 17 15 15 14 15 15 15 16 16 18 22 22 20 13 14 15 12 10 11 11 10 11 11 11 10 10 12 13 12 9 7 7 6 8 11 10 8 6 8 10 8 10 10 12 12 10 9 9 9 7 5 5 5 4 3 3 4 2 1 4 8 9 11 7 7 9 14 17
21 21 19 19 19 18 17 16 17 20 22 25 25 24 36 30 21 22 24 21 17 15 16 17 17 16 16 16 22 22 20 17 16 14 13 14 10 7 6 7 8 8 9 11 12 11 10 11 11 12 13 12 10 7 7 8 7 7 7 9 10 11 9 9 11 12 12 9 9 8 8 8 8 7 10 11 9 6 5 3 4 7 7 9 9 9 11 11 11 17
16 16 18 21 21 19 17 17 18 21 23 30 32 47 33 18 26 32 32 33 34 23 21 33 33 59 77 77 84 81 81 66 49 34 21 53 39 23 17 10 9 9 10 12 12 13 13 13 13 13 12 11 11 12 12 10 10 11 10 11 12 12 13 11 11 12 12 9 8 8 10 10 10 9 7 10 9 6 8 5 8 9 8 8 10 10 11 11 12 15
15 15 20 20 21 19 17 17 18 20 23 31 29 22 20 37 25 31 26 30 21 28 46 46 84 97 98 98 100 98 98 92 80 71 61 53 39 66 64 10 9 11 11 11 14 14 13 13 14 12 11 11 11 11 12 11 12 12 10 11 13 13 13 12 11 13 12 10 10 10 10 11 10 10 9 7 9 8 9 9 12 10 10 9 9 12 13 11 11 14
16 16 17 17 17 17 15 15 15 16 22 28 20 23 29 19 27 24 21 18 22 31 31 65 83 84 91 91 93 98 92 92 80 79 79 74 64 64 66 49 25 12 11 12 12 12 12 11 11 12 11 10 11 9 10 11 13 14 12 11 12 12 13 12 14 13 13 15 10 10 10 11 11 12 11 11 11 11 9 8 10 10 11 13 12 10 10 11 11 14
14 14 16 16 18 16 16 17 15 14 22 18 21 22 18 20 21 21 18 20 19 19 27 50 57 69 75 75 76 92 93 89 89 79 79 74 70 67 65 66 61 12 7 7 9 12 11 9 10 11 11 10 11 10 10 12 13 11 11 12 12 12 13 13 12 14 14 15 15 13 12 12 13 12 11 12 12 11 11 6 4 10 9 9 12 10 10 10 11 13
14 14 16 18 16 16 17 17 15 18 22 18 21 18 20 20 22 22 18 18 18 19 18 27 35 56 56 56 76 74 79 86 85 85 82 77 70 67 65 66 61 31 17 15 9 12 8 9 10 10 9 9 12 13 14 11 13 19 23 12 12 11 12 13 13 13 14 14 16 15 15 15 15 12 7 9 11 9 11 7 4 5 7 7 9 9 10 10 10 14
13 13 16 17 17 19 18 16 17 16 16 21 21 16 20 19 16 17 18 18 15 18 15 17 35 31 31 56 58 60 63 86 85 82 73 74 74 69 67 65 63 62 17 15 12 8 19 19 11 18 13 8 23 38 33 31 25 23 23 26 25 20 11 12 11 13 13 13 13 13 13 13 13 10 9 10 11 10 10 10 8 8 9 7 6 8 11 11 9 12
13 13 17 17 16 17 18 19 17 18 17 17 16 17 16 17 17 19 16 16 14 16 14 17 21 21 19 30 35 44 63 71 74 73 74 74 68 68 69 68 69 63 63 55 43 34 69 45 23 24 20 22 27 30 34 28 27 23 25 28 29 25 20 20 11 11 10 11 12 12 13 12 11 8 11 13 13 11 10 7 10 8 9 9 9 9 9 11 10 11
13 13 15 17 16 17 18 19 13 16 18 16 18 18 18 19 18 18 17 17 15 23 14 14 15 18 19 17 25 37 51 60 62 65 66 68 63 63 59 64 63 69 72 75 78 69 88 82 52 54 33 27 30 23 19 26 27 31 27 21 28 29 23 20 17 17 16 14 14 14 15 10 10 7 10 13 13 12 12 9 10 12 12 12 11 9 9 9 8 10
13 13 14 15 14 16 18 16 13 14 16 17 19 19 17 17 17 18 19 19 15 23 36 36 45 47 23 30 32 34 42 47 55 58 56 58 57 52 53 60 61 50 38 52 77 88 49 65 68 41 39 33 38 30 23 19 26 23 26 21 22 27 29 20 20 22 23 21 21 19 19 16 14 10 11 15 14 13 12 9 8 11 13 13 11 11 9 11 10 11
16 16 15 14 14 16 16 14 14 17 17 18 17 16 17 17 18 16 25 19 37 51 50 50 39 47 54 66 54 32 31 38 39 41 45 44 46 52 43 33 44 64 31 17 26 49 21 21 34 20 27 34 27 31 26 19 20 27 26 21 21 22 29 29 26 20 19 18 19 16 18 17 14 12 12 16 15 17 13 11 11 11 11 10 9 9 12 12 10 9
15 15 15 15 13 16 19 16 14 18 19 18 15 16 18 18 17 16 26 25 38 29 29 50 39 39 68 74 63 47 29 25 30 35 38 47 58 58 41 22 32 55 70 70 65 40 16 16 14 16 18 22 27 31 26 18 17 27 26 25 28 21 22 25 32 28 27 20 14 18 18 16 13 12 14 16 16 17 14 13 12 11 11 11 11 11 13 13 13 12
14 14 16 18 19 18 16 15 17 18 19 18 19 18 17 18 18 18 26 26 28 26 29 26 40 60 60 64 73 63 57 44 23 25 29 25 22 23 67 64 35 21 38 56 60 60 43 24 24 30 18 15 17 19 19 17 17 22 23 24 28 23 20 21 19 20 20 16 16 17 17 16 13 14 15 15 14 18 16 13 13 12 11 12 13 13 14 14 14 12
14 13 14 14 16 16 15 13 13 16 18 19 19 18 18 16 17 18 26 27 28 26 26 47 62 62 47 47 59 67 52 39 27 21 21 25 27 25 22 28 72 47 21 22 29 41 41 47 30 37 36 21 17 16 14 17 18 21 20 24 28 29 25 23 24 25 18 17 17 16 14 15 12 13 15 15 14 14 16 14 15 14 13 12 13 13 14 14 13 13
15 14 15 15 16 16 15 15 15 18 18 18 18 15 16 19 18 18 22 27 27 40 40 48 34 34 25 42 51 48 36 29 24 22 19 18 26 25 20 20 53 53 35 19 18 24 32 32 37 36 29 29 19 17 14 19 18 19 20 20 22 26 27 22 19 18 16 15 18 16 16 14 13 14 18 15 13 14 14 14 12 12 14 13 12 14 14 13 13 12
14 14 15 15 14 16 17 16 16 18 17 18 19 16 16 19 18 18 22 28 28 32 32 27 23 23 34 50 52 25 22 16 16 14 15 17 19 18 18 16 23 25 25 24 21 17 17 24 24 33 29 18 16 17 18 17 17 18 15 15 14 15 18 21 15 14 16 18 18 16 14 14 13 14 18 18 15 13 13 14 12 12 13 12 11 13 14 15 14 12
14 15 14 16 14 15 16 16 17 19 19 18 19 15 16 19 17 18 18 22 28 32 32 27 31 31 38 44 28 18 18 17 16 15 15 18 16 15 17 16 16 17 17 17 21 17 17 18 18 18 19 18 16 18 17 15 18 18 18 17 16 15 15 15 15 16 19 19 18 14 14 13 13 13 15 18 17 14 13 13 13 13 13 11 11 14 13 14 13 12
14 16 14 14 14 16 16 17 16 16 17 16 18 18 16 19 18 18 19 18 22 23 23 26 30 30 41 25 20 17 17 18 17 18 17 17 18 17 17 16 15 16 17 20 20 19 16 18 17 17 14 13 13 14 16 16 16 15 16 16 16 17 18 18 19 19 18 19 17 17 17 15 15 12 15 15 15 14 13 13 13 12 12 10 11 12 11 11 12 11
15 16 15 16 16 16 20 19 19 16 17 16 18 17 15 19 18 17 18 19 16 18 18 25 23 31 25 22 17 17 17 17 16 17 18 17 18 17 17 17 16 17 17 18 17 17 15 17 16 14 14 12 13 13 13 13 13 13 13 14 13 14 17 17 18 17 18 18 14 18 19 15 15 12 12 12 15 15 15 14 13 12 11 10 11 10 11 11 10 11
13 13 15 20 20 18 17 17 16 14 14 17 16 17 15 19 16 17 17 17 14 15 15 19 20 25 20 18 16 16 14 14 18 16 17 18 17 18 17 17 17 17 16 18 18 15 15 16 16 14 14 14 14 14 14 14 14 14 13 13 12 13 15 15 16 17 18 19 16 15 16 15 15 13 12 12 13 13 12 12 13 11 11 12 9 7 7 9 9 10
13 16 18 18 16 14 14 14 14 14 14 18 17 16 15 16 18 16 15 15 14 15 15 18 19 20 16 13 12 13 12 11 11 14 17 16 16 16 17 18 19 17 17 19 18 15 15 15 17 16 16 16 15 15 13 12 12 13 13 12 12 13 13 14 13 13 18 17 17 15 14 15 15 13 12 12 12 12 10 9 10 10 11 10 9 5 2 3 6 6
14 14 18 17 16 16 11 11 14 14 11 12 12 15 13 13 14 16 14 15 15 15 16 17 19 12 12 5 7 9 8 9 9 9 14 14 13 12 15 16 16 14 14 14 14 14 14 14 14 14 14 13 12 12 12 12 11 12 12 11 11 11 13 13 13 11 12 14 15 15 13 14 15 15 15 11 10 10 10 9 5 9 12 7 5 1 1 0 6 6
15 18 18 17 12 11 11 11 12 11 9 10 12 10 9 8 10 14 14 13 13 14 11 13 10 8 8 5 7 9 8 9 9 9 12 12 11 10 11 10 9 9 12 12 11 10 11 11 13 13 13 13 12 11 10 8 9 10 10 12 11 10 9 8 10 9 11 11 12 14 10 12 14 14 14 11 10 9 9 3 3 3 1 1 0 0 1 0 6 6
112 106 99 99 97 88 93 101 98 96 90 88 91 86 86 83 82 88 86 86 88 83 84 91 92 87 87 90 90 91 98 94 99 96 95 88 91 91 97 95 99 99 86 88 91 94 94 96 87 86 86 86 86 86 84 81 80 80 81 84 87 89 87 79 79 78 75 74 75 78 80 83 77 81 77 75 80 84 84 85 79 79 75 70 69 69 70 70 75 69
107 107 105 105 97 88 93 101 98 96 90 99 90 84 86 87 92 94 85 86 88 83 84 91 92 87 87 90 90 91 103 101 94 108 104 95 98 100 105 95 99 105 86 88 91 94 94 96 113 120 110 99 99 94 88 80 81 82 85 92 84 87 90 81 81 88 84 83 84 88 96 83 77 81 82 77 83 83 83 78 76 76 74 68 68 71 73 70 71 73
108 108 104 104 96 92 95 97 103 99 96 99 87 79 80 85 92 93 85 92 97 93 84 91 103 103 103 100 99 105 110 113 116 116 115 111 114 114 115 105 114 113 86 88 88 134 128 112 125 129 122 114 114 111 100 96 97 97 99 82 82 89 89 83 87 90 88 89 89 87 87 96 87 95 87 89 81 80 79 77 77 77 79 81 74 75 74 72 71 75
117 108 108 101 96 96 86 87 96 97 94 94 83 80 81 84 92 96 95 108 97 93 88 93 103 103 95 101 105 108 110 120 114 116 117 117 111 123 127 119 130 113 103 109 114 144 124 124 129 130 136 130 107 133 138 120 106 94 90 85 92 87 77 77 80 77 83 83 83 80 82 80 79 83 87 93 91 82 79 81 78 80 88 92 92 81 76 73 73 79
117 117 112 110 96 96 88 93 97 95 91 88 83 89 90 84 92 98 101 109 113 106 91 91 95 95 95 98 103 107 109 114 121 120 113 113 114 113 134 131 139 125 105 117 128 131 131 126 46 60 60 9 16 44 79 119 145 103 98 96 102 90 77 77 78 87 91 91 92 85 81 80 85 87 86 89 86 85 79 85 84 87 96 101 87 82 79 76 77 77
104 104 104 110 109 98 98 93 100 89 91 96 96 89 90 85 86 90 102 101 112 109 94 94 99 103 96 101 107 115 117 114 124 131 134 134 115 124 124 153 145 147 143 133 132 34 34 34 14 14 18 17 14 10 9 29 89 125 103 103 102 89 89 83 85 95 98 98 100 108 108 90 87 86 89 98 92 91 92 85 84 87 96 101 95 87 88 81 77 83
118 118 104 109 110 98 104 104 100 89 92 103 103 101 93 86 87 93 97 98 99 108 101 101 98 102 107 103 107 125 123 121 128 142 130 58 131 86 36 86 43 22 88 62 17 17 16 15 18 19 17 16 17 17 17 13 7 140 132 126 118 108 102 96 101 104 104 104 104 101 101 95 106 99 110 126 121 103 100 100 100 93 96 96 92 88 92 92 91 83
118 104 104 103 111 116 118 102 102 94 90 100 106 111 101 94 103 111 97 97 104 115 106 100 98 100 102 98 115 119 118 124 128 143 60 58 18 18 16 16 15 20 30 27 19 18 14 17 16 16 16 15 18 19 17 16 13 7 137 154 144 132 117 110 107 108 118 119 119 113 113 106 112 112 126 127 123 102 104 110 103 93 88 99 99 99 103 91 89 81
118 117 117 109 111 115 111 104 98 98 103 112 116 112 96 110 119 119 115 119 116 103 105 99 97 98 111 120 127 135 142 149 143 60 60 9 18 26 26 16 13 17 29 16 14 37 30 24 40 31 25 21 19 20 17 15 16 17 8 137 144 132 122 115 112 114 129 130 132 132 136 136 134 117 125 120 123 102 104 110 103 93 88 99 99 99 103 105 94 80
125 138 139 139 104 112 112 115 110 103 121 116 101 91 101 119 125 128 129 133 132 128 119 123 120 118 132 141 141 147 148 148 72 13 32 56 56 106 37 37 53 72 82 69 113 92 80 111 72 49 34 28 26 19 20 20 18 17 8 35 133 140 122 124 121 114 117 114 120 136 136 133 133 131 128 124 111 97 114 102 113 102 94 100 104 112 112 106 106 89
122 134 150 152 152 140 123 118 129 136 132 121 113 114 117 135 139 141 135 142 136 129 122 130 134 133 140 148 151 151 150 87 18 31 82 157 217 231 152 167 185 188 177 234 210 185 182 132 83 56 43 37 28 26 23 20 18 16 18 9 39 138 137 124 117 117 114 131 131 134 134 134 140 139 137 124 118 107 113 103 113 102 94 102 103 117 125 124 100 100
139 139 136 133 133 133 121 116 121 129 145 148 138 137 133 142 142 142 142 148 148 140 147 149 136 126 130 150 150 101 21 18 31 31 82 157 217 231 238 246 246 254 250 245 234 186 139 102 76 63 55 37 37 31 27 20 19 14 19 9 39 138 137 128 114 101 118 131 121 121 131 144 144 142 136 128 125 114 113 103 106 108 105 102 103 117 125 124 100 100
153 144 151 145 133 131 144 142 145 160 152 146 153 145 159 159 165 148 151 160 162 166 156 145 146 159 139 141 106 32 21 18 59 131 213 237 239 248 248 254 254 230 230 228 205 164 123 107 93 80 70 43 32 29 22 17 15 17 19 18 9 147 149 128 93 101 122 101 121 121 121 110 127 127 141 122 116 120 119 118 108 104 108 102 109 107 123 121 104 104
141 151 168 157 142 147 143 181 173 179 181 188 196 177 179 197 192 175 183 167 170 190 172 159 177 202 185 128 39 32 13 29 79 133 187 219 222 223 226 226 228 214 220 236 229 203 171 154 142 125 70 61 51 29 27 20 16 17 19 18 16 98 159 142 93 100 122 67 82 121 110 110 107 130 130 125 119 120 123 130 124 114 120 120 123 126 127 126 115 108
117 110 114 114 110 104 105 151 161 162 201 194 159 135 130 185 209 214 205 168 170 190 208 206 219 202 193 68 21 21 18 37 79 133 187 219 222 198 193 197 197 221 236 163 130 126 136 134 131 125 103 80 51 37 27 23 16 18 19 18 17 40 134 105 87 100 83 67 73 92 78 78 96 93 113 113 128 118 120 125 125 129 140 141 136 139 134 133 123 109
112 81 65 76 99 96 92 94 128 151 140 117 105 98 108 108 170 157 179 207 212 206 208 206 219 226 242 34 21 18 18 56 87 137 175 200 202 198 198 200 200 204 163 29 23 38 60 59 131 117 73 66 44 28 23 20 18 19 19 15 14 16 59 63 84 80 83 61 73 57 70 87 87 76 89 149 149 126 129 133 127 133 143 143 141 143 139 142 125 105
77 77 68 69 94 88 76 82 90 71 90 94 78 72 78 108 170 157 179 179 207 189 196 202 198 202 197 95 20 18 17 54 106 149 186 206 208 206 212 220 220 86 86 29 41 64 45 59 52 41 73 60 44 28 24 19 18 18 17 16 15 14 35 57 55 63 59 65 64 57 62 73 73 76 76 118 142 142 144 149 146 144 144 142 137 134 148 147 134 95
66 66 73 69 86 80 84 87 77 73 70 63 55 54 54 78 66 60 60 82 126 189 192 202 198 202 197 95 21 20 17 47 94 153 166 166 85 165 191 191 169 101 27 17 41 64 45 29 16 41 34 60 44 32 27 19 18 18 18 16 16 17 28 47 38 51 66 61 58 58 62 62 73 59 68 66 140 143 143 147 144 142 142 142 140 136 143 132 100 90
68 68 74 76 78 85 84 87 75 72 67 69 68 52 51 53 54 54 68 82 126 189 180 180 149 151 142 76 23 21 18 25 27 40 47 32 25 83 83 159 159 88 24 39 39 109 52 31 20 15 34 35 32 29 19 17 18 18 18 19 18 17 24 37 34 42 48 36 48 50 52 47 43 36 57 64 115 149 144 144 139 138 138 143 143 147 140 117 85 86
75 75 76 77 85 85 79 84 87 72 73 72 69 42 52 54 54 52 68 67 47 107 180 191 149 118 136 94 20 20 17 54 59 71 75 34 41 41 76 76 152 83 83 39 75 124 129 31 31 88 27 41 32 28 21 16 17 16 18 18 19 17 17 34 36 36 36 36 36 38 44 40 38 37 43 51 82 153 144 127 127 130 130 130 132 121 111 106 94 88
75 75 76 77 79 77 77 78 72 66 62 67 49 48 48 52 54 47 64 70 66 142 169 152 101 63 111 21 21 18 19 91 173 206 210 210 211 204 204 196 182 182 82 58 114 193 129 125 133 88 105 77 32 26 19 18 19 17 16 17 17 19 16 28 31 31 34 37 40 46 47 42 40 32 31 49 66 144 143 125 117 117 117 117 115 101 91 97 93 73
75 75 56 69 69 79 72 74 70 55 51 63 60 52 52 56 52 39 47 57 56 101 108 72 56 63 56 26 20 21 17 54 143 143 195 208 206 206 175 192 192 193 92 66 105 170 217 235 219 143 128 80 27 23 19 19 19 17 16 17 19 19 15 30 50 43 39 39 40 85 87 74 74 77 77 35 46 74 146 120 111 102 102 100 100 99 94 99 88 85
58 58 39 39 65 75 72 72 57 64 54 66 67 62 53 53 45 48 42 40 46 47 52 53 56 47 22 23 20 20 16 35 35 111 167 191 191 160 110 110 194 196 95 66 77 164 172 207 182 86 81 62 39 24 20 19 19 17 18 18 18 15 15 36 71 66 66 66 84 58 59 51 50 53 67 75 81 83 100 102 102 92 91 91 98 98 89 93 90 95
58 58 39 65 65 73 67 59 57 58 54 58 60 60 58 61 61 45 43 46 44 43 32 39 49 46 20 20 20 19 14 23 19 51 77 92 92 149 114 114 120 106 47 35 39 146 181 128 138 100 51 39 31 30 26 17 16 17 15 18 19 16 20 20 31 33 38 38 50 34 31 35 35 33 39 37 58 63 115 112 95 95 94 90 90 62 56 64 94 48
37 37 31 49 73 73 71 63 57 58 58 54 54 54 54 58 64 58 50 54 52 43 42 42 44 39 21 19 19 19 17 17 15 37 77 77 86 74 95 95 129 87 55 53 55 97 107 81 91 67 41 34 32 32 27 21 17 16 17 19 19 17 17 27 27 30 34 34 35 40 40 39 43 35 36 36 49 43 42 59 59 55 80 66 50 50 47 45 50 52
36 36 34 38 64 72 68 62 58 57 53 53 58 57 55 49 49 55 51 52 51 54 49 45 46 40 26 20 21 23 19 19 16 18 56 102 102 120 147 147 114 82 64 51 50 66 54 85 79 60 51 35 33 29 24 19 18 19 18 16 16 18 15 27 27 30 34 39 41 44 37 46 44 44 49 50 63 57 57 58 52 56 58 58 51 58 58 65 56 52
34 34 35 34 39 68 69 63 60 56 56 59 53 55 49 45 47 47 48 50 55 58 49 47 44 42 30 20 21 22 17 17 16 18 56 46 99 99 155 138 90 90 69 62 69 80 83 89 74 59 54 38 30 26 22 17 21 20 18 16 16 18 18 25 27 37 39 38 44 43 42 55 53 46 46 49 48 48 68 67 62 66 65 65 59 54 55 55 45 40
37 37 34 34 49 69 67 62 60 56 56 56 50 51 47 48 45 47 49 45 43 46 48 47 41 44 34 21 22 22 19 18 18 15 18 46 99 87 87 183 220 198 198 137 98 85 77 82 56 47 50 37 29 26 22 20 21 18 17 16 17 17 18 20 25 37 38 38 43 43 47 57 60 50 47 46 50 50 41 40 37 31 49 49 43 36 39 46 46 43
35 35 39 48 56 63 62 60 57 53 53 50 52 46 46 44 48 47 48 55 57 55 55 45 47 50 35 23 21 19 19 18 15 18 14 14 32 87 75 132 132 136 100 100 76 63 77 68 39 47 41 33 27 24 19 20 18 19 17 18 19 17 19 18 20 36 41 41 41 47 51 57 61 55 51 53 49 52 45 47 46 47 50 31 35 38 54 61 49 43
31 33 27 27 29 27 41 61 56 52 51 50 51 44 42 42 47 45 46 52 51 54 53 61 58 63 43 22 24 20 20 19 18 13 14 32 22 22 14 24 32 32 35 38 38 35 52 45 39 39 38 31 27 28 19 18 18 19 18 18 20 19 17 17 17 38 47 47 52 51 54 61 42 41 40 43 37 43 52 61 55 55 53 53 52 53 61 68 49 43
